%TF.GenerationSoftware,KiCad,Pcbnew,9.0.0*%
%TF.CreationDate,2025-06-20T14:44:33+02:00*%
%TF.ProjectId,MacroDecKnob,4d616372-6f44-4656-934b-6e6f622e6b69,rev?*%
%TF.SameCoordinates,Original*%
%TF.FileFunction,Legend,Bot*%
%TF.FilePolarity,Positive*%
%FSLAX46Y46*%
G04 Gerber Fmt 4.6, Leading zero omitted, Abs format (unit mm)*
G04 Created by KiCad (PCBNEW 9.0.0) date 2025-06-20 14:44:33*
%MOMM*%
%LPD*%
G01*
G04 APERTURE LIST*
G04 Aperture macros list*
%AMRoundRect*
0 Rectangle with rounded corners*
0 $1 Rounding radius*
0 $2 $3 $4 $5 $6 $7 $8 $9 X,Y pos of 4 corners*
0 Add a 4 corners polygon primitive as box body*
4,1,4,$2,$3,$4,$5,$6,$7,$8,$9,$2,$3,0*
0 Add four circle primitives for the rounded corners*
1,1,$1+$1,$2,$3*
1,1,$1+$1,$4,$5*
1,1,$1+$1,$6,$7*
1,1,$1+$1,$8,$9*
0 Add four rect primitives between the rounded corners*
20,1,$1+$1,$2,$3,$4,$5,0*
20,1,$1+$1,$4,$5,$6,$7,0*
20,1,$1+$1,$6,$7,$8,$9,0*
20,1,$1+$1,$8,$9,$2,$3,0*%
G04 Aperture macros list end*
%ADD10C,0.100000*%
%ADD11C,2.200000*%
%ADD12C,4.000000*%
%ADD13C,3.000000*%
%ADD14R,2.500000X1.800000*%
%ADD15O,2.500000X1.800000*%
%ADD16R,2.800000X1.800000*%
%ADD17O,2.800000X1.800000*%
%ADD18C,3.200000*%
%ADD19RoundRect,0.264706X0.985294X-0.635294X0.985294X0.635294X-0.985294X0.635294X-0.985294X-0.635294X0*%
%ADD20R,1.800000X2.800000*%
%ADD21O,1.800000X2.800000*%
%ADD22C,4.500000*%
%ADD23R,2.200000X2.200000*%
%ADD24RoundRect,0.330000X0.770000X0.770000X-0.770000X0.770000X-0.770000X-0.770000X0.770000X-0.770000X0*%
%ADD25C,5.600000*%
%ADD26RoundRect,0.343750X-0.756250X-1.656250X0.756250X-1.656250X0.756250X1.656250X-0.756250X1.656250X0*%
G04 APERTURE END LIST*
D10*
X79086972Y-119742419D02*
X78753639Y-120742419D01*
X78753639Y-120742419D02*
X78420306Y-119742419D01*
X77515544Y-120647180D02*
X77563163Y-120694800D01*
X77563163Y-120694800D02*
X77706020Y-120742419D01*
X77706020Y-120742419D02*
X77801258Y-120742419D01*
X77801258Y-120742419D02*
X77944115Y-120694800D01*
X77944115Y-120694800D02*
X78039353Y-120599561D01*
X78039353Y-120599561D02*
X78086972Y-120504323D01*
X78086972Y-120504323D02*
X78134591Y-120313847D01*
X78134591Y-120313847D02*
X78134591Y-120170990D01*
X78134591Y-120170990D02*
X78086972Y-119980514D01*
X78086972Y-119980514D02*
X78039353Y-119885276D01*
X78039353Y-119885276D02*
X77944115Y-119790038D01*
X77944115Y-119790038D02*
X77801258Y-119742419D01*
X77801258Y-119742419D02*
X77706020Y-119742419D01*
X77706020Y-119742419D02*
X77563163Y-119790038D01*
X77563163Y-119790038D02*
X77515544Y-119837657D01*
X76515544Y-120647180D02*
X76563163Y-120694800D01*
X76563163Y-120694800D02*
X76706020Y-120742419D01*
X76706020Y-120742419D02*
X76801258Y-120742419D01*
X76801258Y-120742419D02*
X76944115Y-120694800D01*
X76944115Y-120694800D02*
X77039353Y-120599561D01*
X77039353Y-120599561D02*
X77086972Y-120504323D01*
X77086972Y-120504323D02*
X77134591Y-120313847D01*
X77134591Y-120313847D02*
X77134591Y-120170990D01*
X77134591Y-120170990D02*
X77086972Y-119980514D01*
X77086972Y-119980514D02*
X77039353Y-119885276D01*
X77039353Y-119885276D02*
X76944115Y-119790038D01*
X76944115Y-119790038D02*
X76801258Y-119742419D01*
X76801258Y-119742419D02*
X76706020Y-119742419D01*
X76706020Y-119742419D02*
X76563163Y-119790038D01*
X76563163Y-119790038D02*
X76515544Y-119837657D01*
X98466334Y-124403200D02*
X98323477Y-124450819D01*
X98323477Y-124450819D02*
X98085382Y-124450819D01*
X98085382Y-124450819D02*
X97990144Y-124403200D01*
X97990144Y-124403200D02*
X97942525Y-124355580D01*
X97942525Y-124355580D02*
X97894906Y-124260342D01*
X97894906Y-124260342D02*
X97894906Y-124165104D01*
X97894906Y-124165104D02*
X97942525Y-124069866D01*
X97942525Y-124069866D02*
X97990144Y-124022247D01*
X97990144Y-124022247D02*
X98085382Y-123974628D01*
X98085382Y-123974628D02*
X98275858Y-123927009D01*
X98275858Y-123927009D02*
X98371096Y-123879390D01*
X98371096Y-123879390D02*
X98418715Y-123831771D01*
X98418715Y-123831771D02*
X98466334Y-123736533D01*
X98466334Y-123736533D02*
X98466334Y-123641295D01*
X98466334Y-123641295D02*
X98418715Y-123546057D01*
X98418715Y-123546057D02*
X98371096Y-123498438D01*
X98371096Y-123498438D02*
X98275858Y-123450819D01*
X98275858Y-123450819D02*
X98037763Y-123450819D01*
X98037763Y-123450819D02*
X97894906Y-123498438D01*
X97466334Y-124450819D02*
X97466334Y-123450819D01*
X97466334Y-123450819D02*
X97228239Y-123450819D01*
X97228239Y-123450819D02*
X97085382Y-123498438D01*
X97085382Y-123498438D02*
X96990144Y-123593676D01*
X96990144Y-123593676D02*
X96942525Y-123688914D01*
X96942525Y-123688914D02*
X96894906Y-123879390D01*
X96894906Y-123879390D02*
X96894906Y-124022247D01*
X96894906Y-124022247D02*
X96942525Y-124212723D01*
X96942525Y-124212723D02*
X96990144Y-124307961D01*
X96990144Y-124307961D02*
X97085382Y-124403200D01*
X97085382Y-124403200D02*
X97228239Y-124450819D01*
X97228239Y-124450819D02*
X97466334Y-124450819D01*
X96513953Y-124165104D02*
X96037763Y-124165104D01*
X96609191Y-124450819D02*
X96275858Y-123450819D01*
X96275858Y-123450819D02*
X95942525Y-124450819D01*
X78880639Y-122282419D02*
X78690163Y-122282419D01*
X78690163Y-122282419D02*
X78594925Y-122330038D01*
X78594925Y-122330038D02*
X78499687Y-122425276D01*
X78499687Y-122425276D02*
X78452068Y-122615752D01*
X78452068Y-122615752D02*
X78452068Y-122949085D01*
X78452068Y-122949085D02*
X78499687Y-123139561D01*
X78499687Y-123139561D02*
X78594925Y-123234800D01*
X78594925Y-123234800D02*
X78690163Y-123282419D01*
X78690163Y-123282419D02*
X78880639Y-123282419D01*
X78880639Y-123282419D02*
X78975877Y-123234800D01*
X78975877Y-123234800D02*
X79071115Y-123139561D01*
X79071115Y-123139561D02*
X79118734Y-122949085D01*
X79118734Y-122949085D02*
X79118734Y-122615752D01*
X79118734Y-122615752D02*
X79071115Y-122425276D01*
X79071115Y-122425276D02*
X78975877Y-122330038D01*
X78975877Y-122330038D02*
X78880639Y-122282419D01*
X78023496Y-122282419D02*
X78023496Y-123091942D01*
X78023496Y-123091942D02*
X77975877Y-123187180D01*
X77975877Y-123187180D02*
X77928258Y-123234800D01*
X77928258Y-123234800D02*
X77833020Y-123282419D01*
X77833020Y-123282419D02*
X77642544Y-123282419D01*
X77642544Y-123282419D02*
X77547306Y-123234800D01*
X77547306Y-123234800D02*
X77499687Y-123187180D01*
X77499687Y-123187180D02*
X77452068Y-123091942D01*
X77452068Y-123091942D02*
X77452068Y-122282419D01*
X77118734Y-122282419D02*
X76547306Y-122282419D01*
X76833020Y-123282419D02*
X76833020Y-122282419D01*
X78547306Y-124997038D02*
X78642544Y-124949419D01*
X78642544Y-124949419D02*
X78785401Y-124949419D01*
X78785401Y-124949419D02*
X78928258Y-124997038D01*
X78928258Y-124997038D02*
X79023496Y-125092276D01*
X79023496Y-125092276D02*
X79071115Y-125187514D01*
X79071115Y-125187514D02*
X79118734Y-125377990D01*
X79118734Y-125377990D02*
X79118734Y-125520847D01*
X79118734Y-125520847D02*
X79071115Y-125711323D01*
X79071115Y-125711323D02*
X79023496Y-125806561D01*
X79023496Y-125806561D02*
X78928258Y-125901800D01*
X78928258Y-125901800D02*
X78785401Y-125949419D01*
X78785401Y-125949419D02*
X78690163Y-125949419D01*
X78690163Y-125949419D02*
X78547306Y-125901800D01*
X78547306Y-125901800D02*
X78499687Y-125854180D01*
X78499687Y-125854180D02*
X78499687Y-125520847D01*
X78499687Y-125520847D02*
X78690163Y-125520847D01*
X78071115Y-125949419D02*
X78071115Y-124949419D01*
X78071115Y-124949419D02*
X77499687Y-125949419D01*
X77499687Y-125949419D02*
X77499687Y-124949419D01*
X77023496Y-125949419D02*
X77023496Y-124949419D01*
X77023496Y-124949419D02*
X76785401Y-124949419D01*
X76785401Y-124949419D02*
X76642544Y-124997038D01*
X76642544Y-124997038D02*
X76547306Y-125092276D01*
X76547306Y-125092276D02*
X76499687Y-125187514D01*
X76499687Y-125187514D02*
X76452068Y-125377990D01*
X76452068Y-125377990D02*
X76452068Y-125520847D01*
X76452068Y-125520847D02*
X76499687Y-125711323D01*
X76499687Y-125711323D02*
X76547306Y-125806561D01*
X76547306Y-125806561D02*
X76642544Y-125901800D01*
X76642544Y-125901800D02*
X76785401Y-125949419D01*
X76785401Y-125949419D02*
X77023496Y-125949419D01*
X98418715Y-119243819D02*
X98418715Y-118243819D01*
X98418715Y-118243819D02*
X98180620Y-118243819D01*
X98180620Y-118243819D02*
X98037763Y-118291438D01*
X98037763Y-118291438D02*
X97942525Y-118386676D01*
X97942525Y-118386676D02*
X97894906Y-118481914D01*
X97894906Y-118481914D02*
X97847287Y-118672390D01*
X97847287Y-118672390D02*
X97847287Y-118815247D01*
X97847287Y-118815247D02*
X97894906Y-119005723D01*
X97894906Y-119005723D02*
X97942525Y-119100961D01*
X97942525Y-119100961D02*
X98037763Y-119196200D01*
X98037763Y-119196200D02*
X98180620Y-119243819D01*
X98180620Y-119243819D02*
X98418715Y-119243819D01*
X97418715Y-119243819D02*
X97418715Y-118243819D01*
X96371097Y-119243819D02*
X96704430Y-118767628D01*
X96942525Y-119243819D02*
X96942525Y-118243819D01*
X96942525Y-118243819D02*
X96561573Y-118243819D01*
X96561573Y-118243819D02*
X96466335Y-118291438D01*
X96466335Y-118291438D02*
X96418716Y-118339057D01*
X96418716Y-118339057D02*
X96371097Y-118434295D01*
X96371097Y-118434295D02*
X96371097Y-118577152D01*
X96371097Y-118577152D02*
X96418716Y-118672390D01*
X96418716Y-118672390D02*
X96466335Y-118720009D01*
X96466335Y-118720009D02*
X96561573Y-118767628D01*
X96561573Y-118767628D02*
X96942525Y-118767628D01*
X98047306Y-125987638D02*
X98142544Y-125940019D01*
X98142544Y-125940019D02*
X98285401Y-125940019D01*
X98285401Y-125940019D02*
X98428258Y-125987638D01*
X98428258Y-125987638D02*
X98523496Y-126082876D01*
X98523496Y-126082876D02*
X98571115Y-126178114D01*
X98571115Y-126178114D02*
X98618734Y-126368590D01*
X98618734Y-126368590D02*
X98618734Y-126511447D01*
X98618734Y-126511447D02*
X98571115Y-126701923D01*
X98571115Y-126701923D02*
X98523496Y-126797161D01*
X98523496Y-126797161D02*
X98428258Y-126892400D01*
X98428258Y-126892400D02*
X98285401Y-126940019D01*
X98285401Y-126940019D02*
X98190163Y-126940019D01*
X98190163Y-126940019D02*
X98047306Y-126892400D01*
X98047306Y-126892400D02*
X97999687Y-126844780D01*
X97999687Y-126844780D02*
X97999687Y-126511447D01*
X97999687Y-126511447D02*
X98190163Y-126511447D01*
X97571115Y-126940019D02*
X97571115Y-125940019D01*
X97571115Y-125940019D02*
X97190163Y-125940019D01*
X97190163Y-125940019D02*
X97094925Y-125987638D01*
X97094925Y-125987638D02*
X97047306Y-126035257D01*
X97047306Y-126035257D02*
X96999687Y-126130495D01*
X96999687Y-126130495D02*
X96999687Y-126273352D01*
X96999687Y-126273352D02*
X97047306Y-126368590D01*
X97047306Y-126368590D02*
X97094925Y-126416209D01*
X97094925Y-126416209D02*
X97190163Y-126463828D01*
X97190163Y-126463828D02*
X97571115Y-126463828D01*
X96380639Y-125940019D02*
X96190163Y-125940019D01*
X96190163Y-125940019D02*
X96094925Y-125987638D01*
X96094925Y-125987638D02*
X95999687Y-126082876D01*
X95999687Y-126082876D02*
X95952068Y-126273352D01*
X95952068Y-126273352D02*
X95952068Y-126606685D01*
X95952068Y-126606685D02*
X95999687Y-126797161D01*
X95999687Y-126797161D02*
X96094925Y-126892400D01*
X96094925Y-126892400D02*
X96190163Y-126940019D01*
X96190163Y-126940019D02*
X96380639Y-126940019D01*
X96380639Y-126940019D02*
X96475877Y-126892400D01*
X96475877Y-126892400D02*
X96571115Y-126797161D01*
X96571115Y-126797161D02*
X96618734Y-126606685D01*
X96618734Y-126606685D02*
X96618734Y-126273352D01*
X96618734Y-126273352D02*
X96571115Y-126082876D01*
X96571115Y-126082876D02*
X96475877Y-125987638D01*
X96475877Y-125987638D02*
X96380639Y-125940019D01*
X98466334Y-121863200D02*
X98323477Y-121910819D01*
X98323477Y-121910819D02*
X98085382Y-121910819D01*
X98085382Y-121910819D02*
X97990144Y-121863200D01*
X97990144Y-121863200D02*
X97942525Y-121815580D01*
X97942525Y-121815580D02*
X97894906Y-121720342D01*
X97894906Y-121720342D02*
X97894906Y-121625104D01*
X97894906Y-121625104D02*
X97942525Y-121529866D01*
X97942525Y-121529866D02*
X97990144Y-121482247D01*
X97990144Y-121482247D02*
X98085382Y-121434628D01*
X98085382Y-121434628D02*
X98275858Y-121387009D01*
X98275858Y-121387009D02*
X98371096Y-121339390D01*
X98371096Y-121339390D02*
X98418715Y-121291771D01*
X98418715Y-121291771D02*
X98466334Y-121196533D01*
X98466334Y-121196533D02*
X98466334Y-121101295D01*
X98466334Y-121101295D02*
X98418715Y-121006057D01*
X98418715Y-121006057D02*
X98371096Y-120958438D01*
X98371096Y-120958438D02*
X98275858Y-120910819D01*
X98275858Y-120910819D02*
X98037763Y-120910819D01*
X98037763Y-120910819D02*
X97894906Y-120958438D01*
X96894906Y-121815580D02*
X96942525Y-121863200D01*
X96942525Y-121863200D02*
X97085382Y-121910819D01*
X97085382Y-121910819D02*
X97180620Y-121910819D01*
X97180620Y-121910819D02*
X97323477Y-121863200D01*
X97323477Y-121863200D02*
X97418715Y-121767961D01*
X97418715Y-121767961D02*
X97466334Y-121672723D01*
X97466334Y-121672723D02*
X97513953Y-121482247D01*
X97513953Y-121482247D02*
X97513953Y-121339390D01*
X97513953Y-121339390D02*
X97466334Y-121148914D01*
X97466334Y-121148914D02*
X97418715Y-121053676D01*
X97418715Y-121053676D02*
X97323477Y-120958438D01*
X97323477Y-120958438D02*
X97180620Y-120910819D01*
X97180620Y-120910819D02*
X97085382Y-120910819D01*
X97085382Y-120910819D02*
X96942525Y-120958438D01*
X96942525Y-120958438D02*
X96894906Y-121006057D01*
X95990144Y-121910819D02*
X96466334Y-121910819D01*
X96466334Y-121910819D02*
X96466334Y-120910819D01*
%LPC*%
D11*
%TO.C,R4*%
X120548400Y-91440000D03*
X120548400Y-99060000D03*
%TD*%
D12*
%TO.C,SW2*%
X175801867Y-49010000D03*
D13*
X173261867Y-54090000D03*
X179611867Y-51550000D03*
%TD*%
D14*
%TO.C,J7*%
X101967600Y-49653800D03*
D15*
X101967600Y-47113800D03*
X101967600Y-44573800D03*
%TD*%
D12*
%TO.C,SW8*%
X216408000Y-69494400D03*
D13*
X213868000Y-74574400D03*
X220218000Y-72034400D03*
%TD*%
D16*
%TO.C,U1*%
X139446000Y-82169000D03*
D17*
X139446000Y-79629000D03*
X139446000Y-77089000D03*
X139446000Y-74549000D03*
X139446000Y-72009000D03*
X139446000Y-69469000D03*
X139446000Y-66929000D03*
X139446000Y-64389000D03*
X139446000Y-61849000D03*
X139446000Y-59309000D03*
X139446000Y-56769000D03*
X139446000Y-54229000D03*
X139446000Y-51689000D03*
X139446000Y-44069000D03*
X139446000Y-41529000D03*
X139446000Y-38989000D03*
X139446000Y-36449000D03*
X114046000Y-82169000D03*
X114046000Y-79629000D03*
X114046000Y-77089000D03*
X114046000Y-74549000D03*
X114046000Y-72009000D03*
X114046000Y-69469000D03*
X114046000Y-66929000D03*
X114046000Y-64389000D03*
X114046000Y-61849000D03*
X114046000Y-59309000D03*
X114046000Y-56769000D03*
X114046000Y-54229000D03*
X114046000Y-51689000D03*
X114046000Y-49149000D03*
X114046000Y-46609000D03*
X114046000Y-44069000D03*
X114046000Y-41529000D03*
X114046000Y-38989000D03*
%TD*%
D18*
%TO.C,Display1*%
X70670800Y-82016200D03*
X104690800Y-82016200D03*
X70670800Y-59106200D03*
X104690800Y-59106200D03*
D19*
X69265800Y-78181200D03*
D17*
X69265800Y-75641200D03*
X69265800Y-73101200D03*
X69265800Y-70561200D03*
X69265800Y-68021200D03*
X69265800Y-65481200D03*
X69265800Y-62941200D03*
%TD*%
D12*
%TO.C,SW10*%
X175801867Y-90170000D03*
D13*
X173261867Y-95250000D03*
X179611867Y-92710000D03*
%TD*%
D11*
%TO.C,R3*%
X113995200Y-91490800D03*
X113995200Y-99110800D03*
%TD*%
D20*
%TO.C,J1*%
X62629413Y-66245202D03*
D21*
X60129413Y-66245202D03*
%TD*%
D22*
%TO.C,MD1*%
X79575000Y-114775000D03*
X79575000Y-130775000D03*
X95575000Y-114775000D03*
X95575000Y-130775000D03*
D17*
X81075000Y-120235000D03*
X81075000Y-122775000D03*
X81075000Y-125315000D03*
X94077400Y-126280200D03*
X94077400Y-123740200D03*
X94077400Y-121200200D03*
X94077400Y-118660200D03*
%TD*%
D12*
%TO.C,SW5*%
X155498800Y-69494400D03*
D13*
X152958800Y-74574400D03*
X159308800Y-72034400D03*
%TD*%
D12*
%TO.C,SW14*%
X134616000Y-112826800D03*
D13*
X132076000Y-117906800D03*
X138426000Y-115366800D03*
%TD*%
D12*
%TO.C,SW7*%
X196104933Y-69494400D03*
D13*
X193564933Y-74574400D03*
X199914933Y-72034400D03*
%TD*%
D23*
%TO.C,D2*%
X126919800Y-91440000D03*
D11*
X126919800Y-99060000D03*
%TD*%
D12*
%TO.C,SW12*%
X216408000Y-90170000D03*
D13*
X213868000Y-95250000D03*
X220218000Y-92710000D03*
%TD*%
D24*
%TO.C,U2*%
X89951200Y-51996000D03*
X81451200Y-51996000D03*
X77451200Y-51996000D03*
X68951200Y-51996000D03*
%TD*%
D12*
%TO.C,SW13*%
X155397200Y-112826800D03*
D13*
X152857200Y-117906800D03*
X159207200Y-115366800D03*
%TD*%
D11*
%TO.C,R5*%
X107200000Y-43380000D03*
X107200000Y-51000000D03*
%TD*%
D12*
%TO.C,SW1*%
X155498800Y-49022000D03*
D13*
X152958800Y-54102000D03*
X159308800Y-51562000D03*
%TD*%
D11*
%TO.C,C1*%
X58727013Y-82018602D03*
X63727013Y-82018602D03*
%TD*%
D12*
%TO.C,SW3*%
X196104933Y-49010000D03*
D13*
X193564933Y-54090000D03*
X199914933Y-51550000D03*
%TD*%
D12*
%TO.C,SW4*%
X216408000Y-49010000D03*
D13*
X213868000Y-54090000D03*
X220218000Y-51550000D03*
%TD*%
D25*
%TO.C,J4*%
X60688549Y-136336458D03*
%TD*%
D12*
%TO.C,SW9*%
X155498800Y-90170000D03*
D13*
X152958800Y-95250000D03*
X159308800Y-92710000D03*
%TD*%
D12*
%TO.C,SW11*%
X196104933Y-90170000D03*
D13*
X193564933Y-95250000D03*
X199914933Y-92710000D03*
%TD*%
D12*
%TO.C,SW6*%
X175801867Y-69494400D03*
D13*
X173261867Y-74574400D03*
X179611867Y-72034400D03*
%TD*%
D11*
%TO.C,R2*%
X139446000Y-91440000D03*
X139446000Y-99060000D03*
%TD*%
D26*
%TO.C,SW15*%
X101955600Y-38227000D03*
X99415600Y-38227000D03*
X104495600Y-38227000D03*
%TD*%
D23*
%TO.C,D1*%
X133032500Y-91440000D03*
D11*
X133032500Y-99060000D03*
%TD*%
D25*
%TO.C,J3*%
X114199000Y-136315010D03*
%TD*%
%TO.C,J5*%
X226797010Y-40160535D03*
%TD*%
%TO.C,J2*%
X226730007Y-119542000D03*
%TD*%
D11*
%TO.C,R7*%
X63942113Y-78510702D03*
X63942113Y-70890702D03*
%TD*%
%TO.C,R1*%
X95250000Y-74371200D03*
X95250000Y-66751200D03*
%TD*%
D25*
%TO.C,J6*%
X60705993Y-40131987D03*
%TD*%
D11*
%TO.C,R6*%
X58608113Y-70890702D03*
X58608113Y-78510702D03*
%TD*%
%LPD*%
M02*
