%TF.GenerationSoftware,KiCad,Pcbnew,9.0.0*%
%TF.CreationDate,2025-04-18T21:36:22+02:00*%
%TF.ProjectId,MacroDecKnob,4d616372-6f44-4656-934b-6e6f622e6b69,rev?*%
%TF.SameCoordinates,Original*%
%TF.FileFunction,Copper,L2,Bot*%
%TF.FilePolarity,Positive*%
%FSLAX46Y46*%
G04 Gerber Fmt 4.6, Leading zero omitted, Abs format (unit mm)*
G04 Created by KiCad (PCBNEW 9.0.0) date 2025-04-18 21:36:22*
%MOMM*%
%LPD*%
G01*
G04 APERTURE LIST*
G04 Aperture macros list*
%AMRoundRect*
0 Rectangle with rounded corners*
0 $1 Rounding radius*
0 $2 $3 $4 $5 $6 $7 $8 $9 X,Y pos of 4 corners*
0 Add a 4 corners polygon primitive as box body*
4,1,4,$2,$3,$4,$5,$6,$7,$8,$9,$2,$3,0*
0 Add four circle primitives for the rounded corners*
1,1,$1+$1,$2,$3*
1,1,$1+$1,$4,$5*
1,1,$1+$1,$6,$7*
1,1,$1+$1,$8,$9*
0 Add four rect primitives between the rounded corners*
20,1,$1+$1,$2,$3,$4,$5,0*
20,1,$1+$1,$4,$5,$6,$7,0*
20,1,$1+$1,$6,$7,$8,$9,0*
20,1,$1+$1,$8,$9,$2,$3,0*%
G04 Aperture macros list end*
%ADD10C,0.300000*%
%ADD11C,0.400000*%
%TA.AperFunction,NonConductor*%
%ADD12C,0.400000*%
%TD*%
%TA.AperFunction,EtchedComponent*%
%ADD13C,0.000000*%
%TD*%
%TA.AperFunction,ComponentPad*%
%ADD14C,2.200000*%
%TD*%
%TA.AperFunction,WasherPad*%
%ADD15C,4.000000*%
%TD*%
%TA.AperFunction,ComponentPad*%
%ADD16R,2.500000X1.800000*%
%TD*%
%TA.AperFunction,ComponentPad*%
%ADD17O,2.500000X1.800000*%
%TD*%
%TA.AperFunction,ComponentPad*%
%ADD18R,2.800000X1.800000*%
%TD*%
%TA.AperFunction,ComponentPad*%
%ADD19O,2.800000X1.800000*%
%TD*%
%TA.AperFunction,ComponentPad*%
%ADD20C,3.200000*%
%TD*%
%TA.AperFunction,ComponentPad*%
%ADD21RoundRect,0.264706X0.985294X-0.635294X0.985294X0.635294X-0.985294X0.635294X-0.985294X-0.635294X0*%
%TD*%
%TA.AperFunction,ComponentPad*%
%ADD22RoundRect,0.264706X0.635294X0.985294X-0.635294X0.985294X-0.635294X-0.985294X0.635294X-0.985294X0*%
%TD*%
%TA.AperFunction,ComponentPad*%
%ADD23O,1.800000X2.500000*%
%TD*%
%TA.AperFunction,ComponentPad*%
%ADD24C,4.500000*%
%TD*%
%TA.AperFunction,ComponentPad*%
%ADD25R,2.200000X2.200000*%
%TD*%
%TA.AperFunction,ComponentPad*%
%ADD26RoundRect,0.330000X0.770000X0.770000X-0.770000X0.770000X-0.770000X-0.770000X0.770000X-0.770000X0*%
%TD*%
%TA.AperFunction,ComponentPad*%
%ADD27C,5.600000*%
%TD*%
%TA.AperFunction,ComponentPad*%
%ADD28RoundRect,0.343750X-0.756250X-1.656250X0.756250X-1.656250X0.756250X1.656250X-0.756250X1.656250X0*%
%TD*%
%TA.AperFunction,ViaPad*%
%ADD29C,2.000000*%
%TD*%
%TA.AperFunction,Conductor*%
%ADD30C,0.800000*%
%TD*%
%TA.AperFunction,Conductor*%
%ADD31C,0.600000*%
%TD*%
G04 APERTURE END LIST*
D10*
G36*
X212813852Y-119681085D02*
G01*
X212758003Y-119689075D01*
X212720551Y-119709661D01*
X212695101Y-119744840D01*
X212686845Y-119791910D01*
X212695394Y-119848513D01*
X212720062Y-119907498D01*
X212767079Y-119956407D01*
X212807845Y-119997206D01*
X212837421Y-120039389D01*
X212860296Y-120092468D01*
X212882850Y-120180073D01*
X213224546Y-121986065D01*
X213235537Y-122089380D01*
X213226011Y-122165034D01*
X213199877Y-122237208D01*
X213179972Y-122282271D01*
X213171179Y-122333012D01*
X213176919Y-122376610D01*
X213195834Y-122425426D01*
X213230652Y-122459958D01*
X213276986Y-122478398D01*
X213348743Y-122485786D01*
X214006734Y-122485786D01*
X214062577Y-122477267D01*
X214100157Y-122455195D01*
X214125561Y-122418145D01*
X214133740Y-122370748D01*
X214125069Y-122313778D01*
X214100523Y-122259556D01*
X214072069Y-122225301D01*
X214053995Y-122206434D01*
X213981699Y-122123452D01*
X213957779Y-122070039D01*
X213934926Y-121982768D01*
X213727198Y-120876348D01*
X214440387Y-122202220D01*
X214528280Y-122350992D01*
X214585711Y-122428267D01*
X214644678Y-122474423D01*
X214712351Y-122490000D01*
X214774902Y-122472672D01*
X214820062Y-122423504D01*
X214853903Y-122343313D01*
X214889672Y-122200205D01*
X215148935Y-120921411D01*
X215352512Y-121990095D01*
X215363625Y-122093593D01*
X215354099Y-122175476D01*
X215325157Y-122245451D01*
X215304555Y-122300506D01*
X215299145Y-122337226D01*
X215304884Y-122380640D01*
X215323826Y-122432813D01*
X215357152Y-122466186D01*
X215402570Y-122483064D01*
X215476709Y-122490000D01*
X215709106Y-122490000D01*
X215764967Y-122481487D01*
X215802651Y-122459408D01*
X215828056Y-122422358D01*
X215836235Y-122374961D01*
X215827564Y-122318175D01*
X215812113Y-122275437D01*
X215790073Y-122244535D01*
X215758565Y-122214494D01*
X215686880Y-122129680D01*
X215663180Y-122077523D01*
X215640108Y-121986798D01*
X215298778Y-120174211D01*
X215343230Y-119953293D01*
X215357397Y-119829829D01*
X215348448Y-119760069D01*
X215323935Y-119716072D01*
X215285088Y-119691076D01*
X215221842Y-119681085D01*
X214787944Y-119681085D01*
X214709883Y-119696682D01*
X214660938Y-119736955D01*
X214625658Y-119806293D01*
X214593649Y-119928930D01*
X214315945Y-121312688D01*
X213561723Y-119905849D01*
X213485018Y-119788188D01*
X213417498Y-119725781D01*
X213340483Y-119693496D01*
X213231140Y-119681085D01*
X212813852Y-119681085D01*
G37*
G36*
X212139088Y-120275379D02*
G01*
X212294951Y-120324861D01*
X212405111Y-120396411D01*
X212478400Y-120476451D01*
X212526457Y-120560829D01*
X212554041Y-120650839D01*
X212563258Y-120749586D01*
X212554678Y-120835458D01*
X212529243Y-120910733D01*
X212484979Y-120978564D01*
X212429582Y-121027344D01*
X212358709Y-121058839D01*
X212268213Y-121070338D01*
X212173025Y-121056093D01*
X212099070Y-121016917D01*
X212041556Y-120955300D01*
X211996810Y-120872596D01*
X211970737Y-120782635D01*
X211961933Y-120682358D01*
X211965800Y-120611905D01*
X211976953Y-120549551D01*
X211903527Y-120563244D01*
X211856420Y-120598644D01*
X211825812Y-120657651D01*
X211812944Y-120745556D01*
X211820511Y-120849640D01*
X211849092Y-121016482D01*
X211917725Y-121288142D01*
X212066484Y-121228280D01*
X212217567Y-121192429D01*
X212371772Y-121180430D01*
X212507793Y-121197807D01*
X212626542Y-121247689D01*
X212731175Y-121328625D01*
X212819032Y-121441706D01*
X212884069Y-121586275D01*
X212927180Y-121768811D01*
X212935729Y-121900336D01*
X212923443Y-122048799D01*
X212886270Y-122190863D01*
X212824726Y-122314464D01*
X212734961Y-122415811D01*
X212664807Y-122462543D01*
X212581935Y-122492128D01*
X212483757Y-122502639D01*
X212355074Y-122481859D01*
X212235851Y-122420207D01*
X212128806Y-122321961D01*
X212039968Y-122193244D01*
X212008109Y-122283412D01*
X211961514Y-122359183D01*
X211897941Y-122422039D01*
X211826191Y-122465561D01*
X211743116Y-122492971D01*
X211646615Y-122502639D01*
X211529266Y-122483277D01*
X211423621Y-122426435D01*
X211330919Y-122337862D01*
X211261200Y-122231163D01*
X211215230Y-122109031D01*
X211203070Y-121996690D01*
X211213695Y-121926165D01*
X211226361Y-121901598D01*
X211240561Y-121894474D01*
X211251335Y-121901991D01*
X211274633Y-121938621D01*
X211301072Y-121972094D01*
X211330198Y-121982585D01*
X211353944Y-121968410D01*
X211362683Y-121921402D01*
X211359996Y-121880736D01*
X211294887Y-121552107D01*
X211979396Y-121552107D01*
X212036671Y-121793541D01*
X212062311Y-121870401D01*
X212098220Y-121922868D01*
X212140694Y-121956184D01*
X212175767Y-121965915D01*
X212209124Y-121955593D01*
X212233042Y-121925799D01*
X212247718Y-121881187D01*
X212253070Y-121820469D01*
X212241405Y-121722401D01*
X212205198Y-121629227D01*
X212169788Y-121579827D01*
X212128893Y-121550752D01*
X212080635Y-121540750D01*
X211979396Y-121552107D01*
X211294887Y-121552107D01*
X211245202Y-121301331D01*
X211219312Y-121127706D01*
X211211496Y-120984792D01*
X211224446Y-120807155D01*
X211261134Y-120660586D01*
X211320833Y-120538261D01*
X211406158Y-120436345D01*
X211504436Y-120361890D01*
X211621241Y-120305578D01*
X211759800Y-120269391D01*
X211923831Y-120256460D01*
X212139088Y-120275379D01*
G37*
G36*
X210160153Y-120235394D02*
G01*
X209995110Y-120254908D01*
X209859124Y-120309399D01*
X209776280Y-120367241D01*
X209709773Y-120435176D01*
X209657257Y-120512915D01*
X209616645Y-120603862D01*
X209592988Y-120698761D01*
X209585083Y-120799961D01*
X209594044Y-120908604D01*
X209619938Y-121001106D01*
X209663241Y-121081329D01*
X209719440Y-121141340D01*
X209788653Y-121178778D01*
X209874511Y-121192154D01*
X209962580Y-121179311D01*
X210032146Y-121143789D01*
X210087247Y-121087740D01*
X210129312Y-121011275D01*
X210154990Y-120918391D01*
X210164061Y-120804174D01*
X210148918Y-120636013D01*
X210219015Y-120674270D01*
X210285555Y-120733113D01*
X210349319Y-120814616D01*
X210401623Y-120911583D01*
X210441955Y-121029013D01*
X210469975Y-121170722D01*
X210482786Y-121293382D01*
X210486706Y-121396402D01*
X210476463Y-121540730D01*
X210448336Y-121651499D01*
X210403907Y-121736571D01*
X210344100Y-121798412D01*
X210266456Y-121838041D01*
X210165771Y-121852526D01*
X210079978Y-121845211D01*
X210012752Y-121825415D01*
X209881838Y-121752142D01*
X209828104Y-121717963D01*
X209798918Y-121709644D01*
X209773761Y-121722100D01*
X209767044Y-121770094D01*
X209774442Y-121871142D01*
X209801753Y-121979632D01*
X209853140Y-122099089D01*
X209917727Y-122204149D01*
X209998688Y-122299969D01*
X210098360Y-122386502D01*
X210204932Y-122450210D01*
X210321080Y-122489225D01*
X210448604Y-122502639D01*
X210581919Y-122489503D01*
X210700809Y-122451691D01*
X210807397Y-122390715D01*
X210904861Y-122304105D01*
X210985000Y-122197449D01*
X211049685Y-122069413D01*
X211096751Y-121924910D01*
X211125646Y-121763358D01*
X211135659Y-121581050D01*
X211130373Y-121447327D01*
X211113189Y-121289973D01*
X211061719Y-121036969D01*
X210988553Y-120824926D01*
X210894163Y-120647686D01*
X210777233Y-120501191D01*
X210643623Y-120386698D01*
X210497687Y-120303949D01*
X210337361Y-120252985D01*
X210160153Y-120235394D01*
G37*
G36*
X208285467Y-120256460D02*
G01*
X208183895Y-120273604D01*
X208100850Y-120322077D01*
X208032187Y-120400990D01*
X207979497Y-120504650D01*
X207948020Y-120622197D01*
X207937177Y-120758012D01*
X207948534Y-120906390D01*
X207974090Y-121016651D01*
X208010055Y-121104687D01*
X208056367Y-121174202D01*
X208112082Y-121225742D01*
X208174760Y-121257003D01*
X208246266Y-121267808D01*
X208316585Y-121258092D01*
X208369772Y-121231779D01*
X208409787Y-121191238D01*
X208460438Y-121104866D01*
X208507484Y-120987356D01*
X208548517Y-120884408D01*
X208569044Y-120859667D01*
X208590771Y-120851985D01*
X208615152Y-120859805D01*
X208637177Y-120884225D01*
X208654745Y-120923910D01*
X208673691Y-120998897D01*
X208889480Y-122049263D01*
X208894853Y-122110263D01*
X208889617Y-122158924D01*
X208874581Y-122197274D01*
X208818283Y-122265052D01*
X208772121Y-122321472D01*
X208764114Y-122346333D01*
X208763206Y-122379907D01*
X208776698Y-122429682D01*
X208805582Y-122463988D01*
X208848150Y-122482151D01*
X208926727Y-122490000D01*
X209643457Y-122490000D01*
X209711644Y-122479172D01*
X209751413Y-122452630D01*
X209774402Y-122408929D01*
X209776081Y-122352430D01*
X209756552Y-122305435D01*
X209715387Y-122260655D01*
X209646510Y-122182070D01*
X209622726Y-122128268D01*
X209599738Y-122037356D01*
X209350366Y-120823042D01*
X209344993Y-120766256D01*
X209348353Y-120725431D01*
X209357205Y-120697929D01*
X209396894Y-120636379D01*
X209437194Y-120575563D01*
X209443764Y-120546140D01*
X209440125Y-120504305D01*
X209418984Y-120450390D01*
X209365916Y-120392717D01*
X209261828Y-120330648D01*
X209098253Y-120275157D01*
X208926727Y-120256460D01*
X208817836Y-120277325D01*
X208734019Y-120335411D01*
X208688733Y-120394468D01*
X208656633Y-120464093D01*
X208636566Y-120546254D01*
X208563630Y-120416594D01*
X208482198Y-120327824D01*
X208390541Y-120274727D01*
X208285467Y-120256460D01*
G37*
G36*
X207119790Y-120272412D02*
G01*
X207274296Y-120319559D01*
X207421946Y-120397693D01*
X207560688Y-120505461D01*
X207682852Y-120637313D01*
X207790020Y-120794099D01*
X207879780Y-120972996D01*
X207947411Y-121166911D01*
X207993841Y-121378267D01*
X208011115Y-121535483D01*
X208016434Y-121669344D01*
X208004147Y-121858439D01*
X207968820Y-122022299D01*
X207911013Y-122166053D01*
X207828977Y-122293079D01*
X207732606Y-122388137D01*
X207608608Y-122461499D01*
X207450586Y-122509944D01*
X207250854Y-122527735D01*
X207088112Y-122511669D01*
X206935574Y-122464419D01*
X206791556Y-122386502D01*
X206656641Y-122278519D01*
X206537662Y-122145418D01*
X206433129Y-121986065D01*
X206346376Y-121804535D01*
X206279940Y-121603744D01*
X206233461Y-121380832D01*
X206216270Y-121227821D01*
X206210990Y-121098182D01*
X206222851Y-120915210D01*
X206249349Y-120791535D01*
X206899145Y-120791535D01*
X206916429Y-121000133D01*
X206985851Y-121381931D01*
X207081931Y-121803237D01*
X207143143Y-122001086D01*
X207190355Y-122098036D01*
X207228798Y-122141478D01*
X207261967Y-122150746D01*
X207291149Y-122143004D01*
X207312526Y-122121071D01*
X207325309Y-122082432D01*
X207330966Y-122001086D01*
X207313619Y-121796103D01*
X207241451Y-121389624D01*
X207149560Y-120990960D01*
X207087090Y-120797763D01*
X207038215Y-120701033D01*
X206998705Y-120655036D01*
X206965334Y-120642058D01*
X206936722Y-120650305D01*
X206916364Y-120673749D01*
X206904357Y-120713265D01*
X206899145Y-120791535D01*
X206249349Y-120791535D01*
X206257045Y-120755615D01*
X206313126Y-120614633D01*
X206392829Y-120489101D01*
X206486517Y-120394833D01*
X206607320Y-120322125D01*
X206761570Y-120274104D01*
X206956908Y-120256460D01*
X207119790Y-120272412D01*
G37*
G36*
X205692545Y-119688069D02*
G01*
X205736793Y-119704898D01*
X205769139Y-119737360D01*
X205787595Y-119786048D01*
X205793335Y-119833859D01*
X205787941Y-119870538D01*
X205767445Y-119925266D01*
X205741311Y-119997623D01*
X205731664Y-120073278D01*
X205742777Y-120176775D01*
X206084351Y-121982768D01*
X206107111Y-122073921D01*
X206129902Y-122127665D01*
X206159367Y-122169689D01*
X206200122Y-122210464D01*
X206247138Y-122257358D01*
X206271807Y-122314145D01*
X206280478Y-122370748D01*
X206272299Y-122418145D01*
X206246894Y-122455195D01*
X206209301Y-122477263D01*
X206153349Y-122485786D01*
X205391800Y-122490000D01*
X205124024Y-122475853D01*
X204907357Y-122431758D01*
X204733688Y-122363604D01*
X204608852Y-122286607D01*
X204499168Y-122191448D01*
X204403017Y-122078197D01*
X204319207Y-121946132D01*
X204226231Y-121744915D01*
X204142412Y-121489926D01*
X204069225Y-121171271D01*
X204025979Y-120875031D01*
X204013049Y-120636196D01*
X204022163Y-120455579D01*
X204720865Y-120455579D01*
X204736344Y-120699987D01*
X204793527Y-121075467D01*
X204878898Y-121471509D01*
X204949842Y-121718620D01*
X205005893Y-121859383D01*
X205059975Y-121956452D01*
X205112386Y-122019221D01*
X205172806Y-122062967D01*
X205243745Y-122090460D01*
X205327442Y-122100188D01*
X205389480Y-122100188D01*
X205013712Y-120070713D01*
X204954972Y-120070713D01*
X204881336Y-120081056D01*
X204824731Y-120109282D01*
X204781315Y-120153145D01*
X204750454Y-120215078D01*
X204729179Y-120311318D01*
X204720865Y-120455579D01*
X204022163Y-120455579D01*
X204022486Y-120449176D01*
X204049310Y-120288367D01*
X204092193Y-120149347D01*
X204151068Y-120028685D01*
X204227128Y-119924167D01*
X204336304Y-119825397D01*
X204474237Y-119749327D01*
X204647181Y-119699338D01*
X204862526Y-119681085D01*
X205618579Y-119681085D01*
X205692545Y-119688069D01*
G37*
G36*
X203262339Y-120252979D02*
G01*
X203413204Y-120303698D01*
X203548835Y-120385769D01*
X203671475Y-120499176D01*
X203777325Y-120642838D01*
X203863725Y-120817836D01*
X203931363Y-121028716D01*
X203979344Y-121281913D01*
X203996642Y-121445908D01*
X204001814Y-121577020D01*
X203988123Y-121798908D01*
X203949536Y-121983096D01*
X203887773Y-122137088D01*
X203801779Y-122265968D01*
X203698306Y-122366687D01*
X203580254Y-122440360D01*
X203445044Y-122486461D01*
X203289480Y-122502639D01*
X203150518Y-122488915D01*
X203031517Y-122450114D01*
X202929344Y-122388700D01*
X202834436Y-122303542D01*
X202760233Y-122211153D01*
X202703785Y-122111545D01*
X202659986Y-121998623D01*
X202636589Y-121895617D01*
X202630390Y-121799586D01*
X202639493Y-121753513D01*
X202665073Y-121739136D01*
X202699448Y-121747080D01*
X202772784Y-121781451D01*
X202929099Y-121850511D01*
X202991331Y-121867609D01*
X203057083Y-121873408D01*
X203151967Y-121862374D01*
X203225217Y-121832441D01*
X203281420Y-121786763D01*
X203323537Y-121719842D01*
X203349881Y-121624797D01*
X203358478Y-121491290D01*
X203245062Y-121509299D01*
X203115945Y-121515654D01*
X202943235Y-121501196D01*
X202792828Y-121460138D01*
X202661653Y-121395120D01*
X202571976Y-121322275D01*
X202504764Y-121232305D01*
X202456574Y-121124207D01*
X202426081Y-120994501D01*
X202414846Y-120846123D01*
X202424795Y-120718991D01*
X202427717Y-120707637D01*
X203077843Y-120707637D01*
X203083226Y-120838595D01*
X203102636Y-120958396D01*
X203135851Y-121069239D01*
X203183703Y-121160697D01*
X203241274Y-121212924D01*
X203311950Y-121230806D01*
X203338084Y-121228058D01*
X203306605Y-121039689D01*
X203270551Y-120886423D01*
X203227186Y-120751303D01*
X203188974Y-120667887D01*
X203147039Y-120610083D01*
X203118754Y-120595713D01*
X203099319Y-120605423D01*
X203085296Y-120637557D01*
X203077843Y-120707637D01*
X202427717Y-120707637D01*
X202453998Y-120605525D01*
X202503293Y-120502189D01*
X202575802Y-120407035D01*
X202656946Y-120339265D01*
X202765513Y-120285368D01*
X202908364Y-120248962D01*
X203093475Y-120235394D01*
X203262339Y-120252979D01*
G37*
G36*
X201459246Y-120235394D02*
G01*
X201294202Y-120254908D01*
X201158217Y-120309399D01*
X201075373Y-120367241D01*
X201008866Y-120435176D01*
X200956350Y-120512915D01*
X200915738Y-120603862D01*
X200892081Y-120698761D01*
X200884176Y-120799961D01*
X200893137Y-120908604D01*
X200919031Y-121001106D01*
X200962334Y-121081329D01*
X201018532Y-121141340D01*
X201087746Y-121178778D01*
X201173604Y-121192154D01*
X201261673Y-121179311D01*
X201331239Y-121143789D01*
X201386339Y-121087740D01*
X201428405Y-121011275D01*
X201454083Y-120918391D01*
X201463154Y-120804174D01*
X201448011Y-120636013D01*
X201518107Y-120674270D01*
X201584647Y-120733113D01*
X201648412Y-120814616D01*
X201700716Y-120911583D01*
X201741047Y-121029013D01*
X201769068Y-121170722D01*
X201781878Y-121293382D01*
X201785799Y-121396402D01*
X201775556Y-121540730D01*
X201747429Y-121651499D01*
X201703000Y-121736571D01*
X201643193Y-121798412D01*
X201565549Y-121838041D01*
X201464863Y-121852526D01*
X201379071Y-121845211D01*
X201311845Y-121825415D01*
X201180931Y-121752142D01*
X201127197Y-121717963D01*
X201098011Y-121709644D01*
X201072854Y-121722100D01*
X201066137Y-121770094D01*
X201073535Y-121871142D01*
X201100846Y-121979632D01*
X201152233Y-122099089D01*
X201216820Y-122204149D01*
X201297781Y-122299969D01*
X201397452Y-122386502D01*
X201504025Y-122450210D01*
X201620173Y-122489225D01*
X201747697Y-122502639D01*
X201881012Y-122489503D01*
X201999901Y-122451691D01*
X202106489Y-122390715D01*
X202203954Y-122304105D01*
X202284093Y-122197449D01*
X202348778Y-122069413D01*
X202395844Y-121924910D01*
X202424739Y-121763358D01*
X202434752Y-121581050D01*
X202429466Y-121447327D01*
X202412281Y-121289973D01*
X202360811Y-121036969D01*
X202287646Y-120824926D01*
X202193255Y-120647686D01*
X202076325Y-120501191D01*
X201942716Y-120386698D01*
X201796780Y-120303949D01*
X201636454Y-120252985D01*
X201459246Y-120235394D01*
G37*
G36*
X198909839Y-119664232D02*
G01*
X198833484Y-119677491D01*
X198768093Y-119715746D01*
X198711147Y-119779270D01*
X198667720Y-119862794D01*
X198641000Y-119964637D01*
X198631524Y-120090130D01*
X198641922Y-120231959D01*
X198671410Y-120349159D01*
X198719452Y-120447152D01*
X198782579Y-120523474D01*
X198851758Y-120568126D01*
X198929378Y-120583257D01*
X199005037Y-120572020D01*
X199065544Y-120540758D01*
X199118917Y-120488086D01*
X199170690Y-120409234D01*
X199406507Y-120705256D01*
X199135764Y-121906748D01*
X199108280Y-122004654D01*
X199081542Y-122073443D01*
X199010589Y-122198557D01*
X198966503Y-122273478D01*
X198953436Y-122341256D01*
X198963793Y-122403568D01*
X198995446Y-122450982D01*
X199045622Y-122478266D01*
X199139427Y-122490000D01*
X199506158Y-122490000D01*
X199596790Y-122478109D01*
X199663367Y-122446388D01*
X199711688Y-122398408D01*
X199750169Y-122331230D01*
X199786771Y-122233050D01*
X199820743Y-122095242D01*
X199959106Y-121398051D01*
X200034822Y-121492023D01*
X200126779Y-121990095D01*
X200137892Y-122093593D01*
X200128367Y-122175476D01*
X200099424Y-122245451D01*
X200078921Y-122300496D01*
X200073534Y-122337226D01*
X200079274Y-122380640D01*
X200098121Y-122432809D01*
X200131420Y-122466186D01*
X200176837Y-122483064D01*
X200250976Y-122490000D01*
X200908967Y-122490000D01*
X200964918Y-122481476D01*
X201002512Y-122459408D01*
X201027916Y-122422358D01*
X201036095Y-122374961D01*
X201027424Y-122318175D01*
X201012140Y-122275463D01*
X200990055Y-122244535D01*
X200958426Y-122214494D01*
X200886863Y-122129680D01*
X200863138Y-122077528D01*
X200839968Y-121986798D01*
X200498394Y-120176775D01*
X200487281Y-120073278D01*
X200496929Y-119997623D01*
X200523063Y-119925266D01*
X200543558Y-119870538D01*
X200548953Y-119833859D01*
X200543213Y-119786048D01*
X200524757Y-119737360D01*
X200492411Y-119704898D01*
X200448163Y-119688069D01*
X200374197Y-119681085D01*
X199716207Y-119681085D01*
X199660251Y-119689079D01*
X199622784Y-119709661D01*
X199597334Y-119744840D01*
X199589078Y-119791910D01*
X199597749Y-119848696D01*
X199622418Y-119903101D01*
X199650872Y-119937540D01*
X199669068Y-119956224D01*
X199741242Y-120039389D01*
X199765148Y-120092674D01*
X199788014Y-120180073D01*
X199902076Y-120786955D01*
X199169958Y-119837889D01*
X199096773Y-119754778D01*
X199037334Y-119704715D01*
X198976039Y-119674453D01*
X198909839Y-119664232D01*
G37*
G36*
X197020498Y-121906748D02*
G01*
X197025750Y-121954924D01*
X197017079Y-121997240D01*
X196993265Y-122012077D01*
X196964139Y-122001587D01*
X196937700Y-121968114D01*
X196903750Y-121923967D01*
X196889607Y-121930809D01*
X196878105Y-121953642D01*
X196868946Y-122021969D01*
X196880571Y-122141733D01*
X196922923Y-122262854D01*
X196990360Y-122366411D01*
X197088276Y-122453729D01*
X197203681Y-122508069D01*
X197348883Y-122527735D01*
X197470217Y-122511780D01*
X197567448Y-122467584D01*
X197645516Y-122398225D01*
X197707317Y-122301947D01*
X197744663Y-122188194D01*
X197758845Y-122051461D01*
X197747105Y-121892093D01*
X197708164Y-121700668D01*
X197554169Y-121096167D01*
X197540369Y-121009888D01*
X197546229Y-120962647D01*
X197562962Y-120928005D01*
X197587711Y-120905735D01*
X197617672Y-120898147D01*
X197674435Y-120917854D01*
X197732833Y-120982960D01*
X197779871Y-121076355D01*
X197812700Y-121192154D01*
X197986479Y-122049080D01*
X197997348Y-122135542D01*
X197993742Y-122181025D01*
X197983914Y-122214677D01*
X197945568Y-122278058D01*
X197916503Y-122326418D01*
X197913572Y-122380823D01*
X197932619Y-122429480D01*
X197968527Y-122464171D01*
X198017796Y-122482365D01*
X198102128Y-122490000D01*
X198740457Y-122490000D01*
X198808643Y-122479172D01*
X198848412Y-122452630D01*
X198871401Y-122408929D01*
X198873080Y-122352430D01*
X198853552Y-122305435D01*
X198812386Y-122260655D01*
X198743510Y-122182070D01*
X198719725Y-122128268D01*
X198696737Y-122037356D01*
X198447365Y-120823042D01*
X198441992Y-120766256D01*
X198445353Y-120725431D01*
X198454204Y-120697929D01*
X198493893Y-120636379D01*
X198534193Y-120575563D01*
X198540763Y-120546140D01*
X198537124Y-120504305D01*
X198515983Y-120450390D01*
X198462915Y-120392717D01*
X198358827Y-120330648D01*
X198195252Y-120275157D01*
X198023726Y-120256460D01*
X197932335Y-120270652D01*
X197858995Y-120310290D01*
X197799755Y-120373696D01*
X197755155Y-120458743D01*
X197730220Y-120558676D01*
X197724895Y-120678695D01*
X197647188Y-120533396D01*
X197568350Y-120426320D01*
X197487857Y-120351714D01*
X197399509Y-120299072D01*
X197305989Y-120267262D01*
X197206123Y-120256460D01*
X197095464Y-120275012D01*
X197004034Y-120327668D01*
X196927564Y-120413630D01*
X196869242Y-120527067D01*
X196833833Y-120660876D01*
X196821441Y-120821027D01*
X196828457Y-120950662D01*
X196849651Y-121078948D01*
X197020498Y-121906748D01*
G37*
G36*
X195831862Y-120272412D02*
G01*
X195986369Y-120319559D01*
X196134019Y-120397693D01*
X196272761Y-120505461D01*
X196394924Y-120637313D01*
X196502093Y-120794099D01*
X196591852Y-120972996D01*
X196659484Y-121166911D01*
X196705914Y-121378267D01*
X196723188Y-121535483D01*
X196728506Y-121669344D01*
X196716220Y-121858439D01*
X196680892Y-122022299D01*
X196623086Y-122166053D01*
X196541050Y-122293079D01*
X196444678Y-122388137D01*
X196320681Y-122461499D01*
X196162659Y-122509944D01*
X195962927Y-122527735D01*
X195800185Y-122511669D01*
X195647646Y-122464419D01*
X195503628Y-122386502D01*
X195368714Y-122278519D01*
X195249735Y-122145418D01*
X195145202Y-121986065D01*
X195058448Y-121804535D01*
X194992013Y-121603744D01*
X194945533Y-121380832D01*
X194928342Y-121227821D01*
X194923063Y-121098182D01*
X194934924Y-120915210D01*
X194961422Y-120791535D01*
X195611217Y-120791535D01*
X195628502Y-121000133D01*
X195697923Y-121381931D01*
X195794004Y-121803237D01*
X195855216Y-122001086D01*
X195902428Y-122098036D01*
X195940871Y-122141478D01*
X195974040Y-122150746D01*
X196003221Y-122143004D01*
X196024598Y-122121071D01*
X196037382Y-122082432D01*
X196043039Y-122001086D01*
X196025692Y-121796103D01*
X195953524Y-121389624D01*
X195861633Y-120990960D01*
X195799162Y-120797763D01*
X195750287Y-120701033D01*
X195710778Y-120655036D01*
X195677407Y-120642058D01*
X195648794Y-120650305D01*
X195628436Y-120673749D01*
X195616430Y-120713265D01*
X195611217Y-120791535D01*
X194961422Y-120791535D01*
X194969118Y-120755615D01*
X195025199Y-120614633D01*
X195104902Y-120489101D01*
X195198589Y-120394833D01*
X195319392Y-120322125D01*
X195473643Y-120274104D01*
X195668981Y-120256460D01*
X195831862Y-120272412D01*
G37*
G36*
X194278724Y-119393176D02*
G01*
X194441050Y-119448627D01*
X194544346Y-119510309D01*
X194598156Y-119567985D01*
X194620568Y-119622100D01*
X194624403Y-119660143D01*
X194617882Y-119687313D01*
X194577337Y-119750327D01*
X194532734Y-119817335D01*
X194520062Y-119880204D01*
X194528244Y-119941386D01*
X194995847Y-122222004D01*
X195004396Y-122311946D01*
X194994210Y-122390003D01*
X194965317Y-122444570D01*
X194920811Y-122477525D01*
X194854919Y-122490000D01*
X194731699Y-122490000D01*
X194660857Y-122480563D01*
X194601517Y-122453913D01*
X194545968Y-122409517D01*
X194485502Y-122341622D01*
X194388049Y-122215593D01*
X194337789Y-122305602D01*
X194276526Y-122381977D01*
X194202913Y-122445303D01*
X194123038Y-122489825D01*
X194031202Y-122517863D01*
X193925331Y-122527735D01*
X193786473Y-122510110D01*
X193657835Y-122458250D01*
X193537245Y-122372058D01*
X193423046Y-122249298D01*
X193326186Y-122101173D01*
X193242315Y-121918501D01*
X193171592Y-121696047D01*
X193115177Y-121427177D01*
X193091938Y-121244021D01*
X193084159Y-121056050D01*
X193089729Y-120938447D01*
X193808827Y-120938447D01*
X193820942Y-121125518D01*
X193864759Y-121398967D01*
X193944148Y-121766971D01*
X194001046Y-121946681D01*
X194046818Y-122034557D01*
X194088037Y-122078702D01*
X194126953Y-122091945D01*
X194176619Y-122075812D01*
X194204722Y-122031725D01*
X194215369Y-121950711D01*
X194201692Y-121822301D01*
X194184717Y-121742616D01*
X194003000Y-120853267D01*
X193961512Y-120793816D01*
X193921187Y-120761526D01*
X193880512Y-120751235D01*
X193843689Y-120768381D01*
X193819272Y-120822800D01*
X193808827Y-120938447D01*
X193089729Y-120938447D01*
X193092839Y-120872773D01*
X193117434Y-120715749D01*
X193156537Y-120580693D01*
X193209822Y-120464188D01*
X193277788Y-120366023D01*
X193354856Y-120296751D01*
X193442857Y-120254362D01*
X193544556Y-120239607D01*
X193653591Y-120253731D01*
X193751152Y-120294717D01*
X193839410Y-120361965D01*
X193919958Y-120456861D01*
X193806873Y-119907131D01*
X193791882Y-119817507D01*
X193786967Y-119728895D01*
X193796004Y-119626261D01*
X193821914Y-119541617D01*
X193865247Y-119470608D01*
X193921256Y-119420695D01*
X193999577Y-119387133D01*
X194107292Y-119374438D01*
X194278724Y-119393176D01*
G37*
G36*
X193117376Y-122827055D02*
G01*
X193086304Y-122715941D01*
X193034822Y-122634713D01*
X192966566Y-122584160D01*
X192881193Y-122566386D01*
X191220830Y-122566386D01*
X191145779Y-122580554D01*
X191099368Y-122616733D01*
X191072576Y-122672067D01*
X191062927Y-122752866D01*
X191068667Y-122830169D01*
X191104889Y-122946461D01*
X191155100Y-123025202D01*
X191220958Y-123073335D01*
X191307658Y-123090654D01*
X192968021Y-123090654D01*
X193039048Y-123077954D01*
X193085380Y-123045041D01*
X193115425Y-122990298D01*
X193125924Y-122912601D01*
X193117376Y-122827055D01*
G37*
G36*
X188257798Y-120090130D02*
G01*
X188269265Y-120235190D01*
X188301762Y-120353546D01*
X188352421Y-120451881D01*
X188413869Y-120521707D01*
X188483174Y-120565194D01*
X188550157Y-120579043D01*
X188615805Y-120568137D01*
X188673743Y-120536362D01*
X188724269Y-120487137D01*
X188762526Y-120428101D01*
X189434316Y-122125833D01*
X189512717Y-122302738D01*
X189575488Y-122405003D01*
X189645480Y-122468987D01*
X189723377Y-122490000D01*
X189779730Y-122479745D01*
X189826053Y-122450556D01*
X189864672Y-122402438D01*
X189907356Y-122297981D01*
X189939898Y-122124002D01*
X190175226Y-120183553D01*
X190187461Y-120114325D01*
X190205512Y-120063935D01*
X190263642Y-119964101D01*
X190303576Y-119902002D01*
X190315300Y-119842651D01*
X190312926Y-119772575D01*
X190293611Y-119725259D01*
X190255342Y-119693792D01*
X190188171Y-119681085D01*
X189488171Y-119681085D01*
X189427510Y-119692573D01*
X189387421Y-119722667D01*
X189362064Y-119770845D01*
X189355425Y-119834042D01*
X189365683Y-119899621D01*
X189398412Y-119963735D01*
X189437002Y-120042320D01*
X189447053Y-120081739D01*
X189450680Y-120132079D01*
X189447993Y-120173112D01*
X189343213Y-121135368D01*
X188976360Y-120158640D01*
X188904965Y-119982820D01*
X188840423Y-119859093D01*
X188781943Y-119776523D01*
X188714402Y-119715192D01*
X188636162Y-119677446D01*
X188544539Y-119664232D01*
X188460602Y-119677741D01*
X188392210Y-119715783D01*
X188335956Y-119777255D01*
X188293576Y-119859363D01*
X188267228Y-119961685D01*
X188257798Y-120090130D01*
G37*
G36*
X187518475Y-119685481D02*
G01*
X187397330Y-119664232D01*
X187342041Y-119677999D01*
X187302198Y-119716439D01*
X187276981Y-119778498D01*
X187267393Y-119875990D01*
X187284368Y-120041221D01*
X187651221Y-121969396D01*
X187656594Y-122030579D01*
X187650894Y-122082197D01*
X187634979Y-122119422D01*
X187568911Y-122189214D01*
X187508949Y-122253878D01*
X187496078Y-122284381D01*
X187491364Y-122328799D01*
X187494417Y-122372580D01*
X187516898Y-122427831D01*
X187556454Y-122464171D01*
X187610928Y-122482257D01*
X187708129Y-122490000D01*
X188550889Y-122490000D01*
X188606135Y-122480060D01*
X188640282Y-122454829D01*
X188662090Y-122413633D01*
X188669591Y-122358108D01*
X188666538Y-122318541D01*
X188650199Y-122272056D01*
X188624773Y-122238124D01*
X188535502Y-122176209D01*
X188467648Y-122134612D01*
X188420586Y-122093410D01*
X188385180Y-122038267D01*
X188361479Y-121957489D01*
X188070341Y-120411798D01*
X188064846Y-120350615D01*
X188071098Y-120293802D01*
X188089392Y-120246934D01*
X188158269Y-120162304D01*
X188220917Y-120083169D01*
X188236010Y-120047021D01*
X188241189Y-120002020D01*
X188235450Y-119958422D01*
X188223861Y-119915807D01*
X188200523Y-119884050D01*
X188166856Y-119861901D01*
X188109176Y-119840636D01*
X187518475Y-119685481D01*
G37*
G36*
X186995551Y-121629959D02*
G01*
X186922894Y-121643069D01*
X186859710Y-121681204D01*
X186803698Y-121745181D01*
X186760141Y-121827897D01*
X186734362Y-121920499D01*
X186725540Y-122026366D01*
X186735581Y-122138798D01*
X186766695Y-122251863D01*
X186815419Y-122351999D01*
X186880146Y-122432480D01*
X186956505Y-122484876D01*
X187043056Y-122502639D01*
X187113817Y-122489616D01*
X187175639Y-122451617D01*
X187230757Y-122387601D01*
X187273722Y-122305071D01*
X187300004Y-122212272D01*
X187310258Y-122106050D01*
X187300551Y-121993524D01*
X187270568Y-121880736D01*
X187222926Y-121780673D01*
X187158583Y-121700118D01*
X187082120Y-121647717D01*
X186995551Y-121629959D01*
G37*
G36*
X185423848Y-119685481D02*
G01*
X185302704Y-119664232D01*
X185247414Y-119677999D01*
X185207571Y-119716439D01*
X185182354Y-119778498D01*
X185172766Y-119875990D01*
X185189741Y-120041221D01*
X185556594Y-121969396D01*
X185561967Y-122030579D01*
X185556267Y-122082197D01*
X185540352Y-122119422D01*
X185474284Y-122189214D01*
X185414323Y-122253878D01*
X185401452Y-122284381D01*
X185396737Y-122328799D01*
X185399790Y-122372580D01*
X185422271Y-122427831D01*
X185461828Y-122464171D01*
X185516302Y-122482257D01*
X185613503Y-122490000D01*
X186456263Y-122490000D01*
X186511508Y-122480060D01*
X186545655Y-122454829D01*
X186567463Y-122413633D01*
X186574965Y-122358108D01*
X186571912Y-122318541D01*
X186555573Y-122272056D01*
X186530146Y-122238124D01*
X186440875Y-122176209D01*
X186373021Y-122134612D01*
X186325959Y-122093410D01*
X186290553Y-122038267D01*
X186266852Y-121957489D01*
X185975715Y-120411798D01*
X185970219Y-120350615D01*
X185976471Y-120293802D01*
X185994766Y-120246934D01*
X186063642Y-120162304D01*
X186126290Y-120083169D01*
X186141383Y-120047021D01*
X186146563Y-120002020D01*
X186140823Y-119958422D01*
X186129234Y-119915807D01*
X186105896Y-119884050D01*
X186072229Y-119861901D01*
X186014549Y-119840636D01*
X185423848Y-119685481D01*
G37*
D11*
D12*
X126936819Y-48014347D02*
X126936819Y-48681014D01*
X127984438Y-48966728D02*
X127984438Y-48014347D01*
X127984438Y-48014347D02*
X125984438Y-48014347D01*
X125984438Y-48014347D02*
X125984438Y-48966728D01*
X127889200Y-49728633D02*
X127984438Y-50014347D01*
X127984438Y-50014347D02*
X127984438Y-50490538D01*
X127984438Y-50490538D02*
X127889200Y-50681014D01*
X127889200Y-50681014D02*
X127793961Y-50776252D01*
X127793961Y-50776252D02*
X127603485Y-50871490D01*
X127603485Y-50871490D02*
X127413009Y-50871490D01*
X127413009Y-50871490D02*
X127222533Y-50776252D01*
X127222533Y-50776252D02*
X127127295Y-50681014D01*
X127127295Y-50681014D02*
X127032057Y-50490538D01*
X127032057Y-50490538D02*
X126936819Y-50109585D01*
X126936819Y-50109585D02*
X126841580Y-49919109D01*
X126841580Y-49919109D02*
X126746342Y-49823871D01*
X126746342Y-49823871D02*
X126555866Y-49728633D01*
X126555866Y-49728633D02*
X126365390Y-49728633D01*
X126365390Y-49728633D02*
X126174914Y-49823871D01*
X126174914Y-49823871D02*
X126079676Y-49919109D01*
X126079676Y-49919109D02*
X125984438Y-50109585D01*
X125984438Y-50109585D02*
X125984438Y-50585776D01*
X125984438Y-50585776D02*
X126079676Y-50871490D01*
X127984438Y-51728633D02*
X125984438Y-51728633D01*
X125984438Y-51728633D02*
X125984438Y-52490538D01*
X125984438Y-52490538D02*
X126079676Y-52681014D01*
X126079676Y-52681014D02*
X126174914Y-52776252D01*
X126174914Y-52776252D02*
X126365390Y-52871490D01*
X126365390Y-52871490D02*
X126651104Y-52871490D01*
X126651104Y-52871490D02*
X126841580Y-52776252D01*
X126841580Y-52776252D02*
X126936819Y-52681014D01*
X126936819Y-52681014D02*
X127032057Y-52490538D01*
X127032057Y-52490538D02*
X127032057Y-51728633D01*
X125984438Y-53538157D02*
X125984438Y-54776252D01*
X125984438Y-54776252D02*
X126746342Y-54109585D01*
X126746342Y-54109585D02*
X126746342Y-54395300D01*
X126746342Y-54395300D02*
X126841580Y-54585776D01*
X126841580Y-54585776D02*
X126936819Y-54681014D01*
X126936819Y-54681014D02*
X127127295Y-54776252D01*
X127127295Y-54776252D02*
X127603485Y-54776252D01*
X127603485Y-54776252D02*
X127793961Y-54681014D01*
X127793961Y-54681014D02*
X127889200Y-54585776D01*
X127889200Y-54585776D02*
X127984438Y-54395300D01*
X127984438Y-54395300D02*
X127984438Y-53823871D01*
X127984438Y-53823871D02*
X127889200Y-53633395D01*
X127889200Y-53633395D02*
X127793961Y-53538157D01*
X126174914Y-55538157D02*
X126079676Y-55633395D01*
X126079676Y-55633395D02*
X125984438Y-55823871D01*
X125984438Y-55823871D02*
X125984438Y-56300062D01*
X125984438Y-56300062D02*
X126079676Y-56490538D01*
X126079676Y-56490538D02*
X126174914Y-56585776D01*
X126174914Y-56585776D02*
X126365390Y-56681014D01*
X126365390Y-56681014D02*
X126555866Y-56681014D01*
X126555866Y-56681014D02*
X126841580Y-56585776D01*
X126841580Y-56585776D02*
X127984438Y-55442919D01*
X127984438Y-55442919D02*
X127984438Y-56681014D01*
X128174914Y-57061967D02*
X128174914Y-58585776D01*
X125984438Y-58871491D02*
X127984438Y-59347681D01*
X127984438Y-59347681D02*
X126555866Y-59728634D01*
X126555866Y-59728634D02*
X127984438Y-60109586D01*
X127984438Y-60109586D02*
X125984438Y-60585777D01*
X127984438Y-61347681D02*
X126651104Y-61347681D01*
X127032057Y-61347681D02*
X126841580Y-61442919D01*
X126841580Y-61442919D02*
X126746342Y-61538157D01*
X126746342Y-61538157D02*
X126651104Y-61728633D01*
X126651104Y-61728633D02*
X126651104Y-61919110D01*
X127984438Y-62871490D02*
X127889200Y-62681014D01*
X127889200Y-62681014D02*
X127793961Y-62585776D01*
X127793961Y-62585776D02*
X127603485Y-62490538D01*
X127603485Y-62490538D02*
X127032057Y-62490538D01*
X127032057Y-62490538D02*
X126841580Y-62585776D01*
X126841580Y-62585776D02*
X126746342Y-62681014D01*
X126746342Y-62681014D02*
X126651104Y-62871490D01*
X126651104Y-62871490D02*
X126651104Y-63157205D01*
X126651104Y-63157205D02*
X126746342Y-63347681D01*
X126746342Y-63347681D02*
X126841580Y-63442919D01*
X126841580Y-63442919D02*
X127032057Y-63538157D01*
X127032057Y-63538157D02*
X127603485Y-63538157D01*
X127603485Y-63538157D02*
X127793961Y-63442919D01*
X127793961Y-63442919D02*
X127889200Y-63347681D01*
X127889200Y-63347681D02*
X127984438Y-63157205D01*
X127984438Y-63157205D02*
X127984438Y-62871490D01*
X127984438Y-64681014D02*
X127889200Y-64490538D01*
X127889200Y-64490538D02*
X127793961Y-64395300D01*
X127793961Y-64395300D02*
X127603485Y-64300062D01*
X127603485Y-64300062D02*
X127032057Y-64300062D01*
X127032057Y-64300062D02*
X126841580Y-64395300D01*
X126841580Y-64395300D02*
X126746342Y-64490538D01*
X126746342Y-64490538D02*
X126651104Y-64681014D01*
X126651104Y-64681014D02*
X126651104Y-64966729D01*
X126651104Y-64966729D02*
X126746342Y-65157205D01*
X126746342Y-65157205D02*
X126841580Y-65252443D01*
X126841580Y-65252443D02*
X127032057Y-65347681D01*
X127032057Y-65347681D02*
X127603485Y-65347681D01*
X127603485Y-65347681D02*
X127793961Y-65252443D01*
X127793961Y-65252443D02*
X127889200Y-65157205D01*
X127889200Y-65157205D02*
X127984438Y-64966729D01*
X127984438Y-64966729D02*
X127984438Y-64681014D01*
X127984438Y-66204824D02*
X126651104Y-66204824D01*
X126841580Y-66204824D02*
X126746342Y-66300062D01*
X126746342Y-66300062D02*
X126651104Y-66490538D01*
X126651104Y-66490538D02*
X126651104Y-66776253D01*
X126651104Y-66776253D02*
X126746342Y-66966729D01*
X126746342Y-66966729D02*
X126936819Y-67061967D01*
X126936819Y-67061967D02*
X127984438Y-67061967D01*
X126936819Y-67061967D02*
X126746342Y-67157205D01*
X126746342Y-67157205D02*
X126651104Y-67347681D01*
X126651104Y-67347681D02*
X126651104Y-67633395D01*
X126651104Y-67633395D02*
X126746342Y-67823872D01*
X126746342Y-67823872D02*
X126936819Y-67919110D01*
X126936819Y-67919110D02*
X127984438Y-67919110D01*
X128174914Y-68395301D02*
X128174914Y-69919110D01*
X125984438Y-70204825D02*
X125984438Y-71442920D01*
X125984438Y-71442920D02*
X126746342Y-70776253D01*
X126746342Y-70776253D02*
X126746342Y-71061968D01*
X126746342Y-71061968D02*
X126841580Y-71252444D01*
X126841580Y-71252444D02*
X126936819Y-71347682D01*
X126936819Y-71347682D02*
X127127295Y-71442920D01*
X127127295Y-71442920D02*
X127603485Y-71442920D01*
X127603485Y-71442920D02*
X127793961Y-71347682D01*
X127793961Y-71347682D02*
X127889200Y-71252444D01*
X127889200Y-71252444D02*
X127984438Y-71061968D01*
X127984438Y-71061968D02*
X127984438Y-70490539D01*
X127984438Y-70490539D02*
X127889200Y-70300063D01*
X127889200Y-70300063D02*
X127793961Y-70204825D01*
X126174914Y-72204825D02*
X126079676Y-72300063D01*
X126079676Y-72300063D02*
X125984438Y-72490539D01*
X125984438Y-72490539D02*
X125984438Y-72966730D01*
X125984438Y-72966730D02*
X126079676Y-73157206D01*
X126079676Y-73157206D02*
X126174914Y-73252444D01*
X126174914Y-73252444D02*
X126365390Y-73347682D01*
X126365390Y-73347682D02*
X126555866Y-73347682D01*
X126555866Y-73347682D02*
X126841580Y-73252444D01*
X126841580Y-73252444D02*
X127984438Y-72109587D01*
X127984438Y-72109587D02*
X127984438Y-73347682D01*
X127984438Y-74204825D02*
X125984438Y-74204825D01*
X125984438Y-74204825D02*
X125984438Y-74681015D01*
X125984438Y-74681015D02*
X126079676Y-74966730D01*
X126079676Y-74966730D02*
X126270152Y-75157206D01*
X126270152Y-75157206D02*
X126460628Y-75252444D01*
X126460628Y-75252444D02*
X126841580Y-75347682D01*
X126841580Y-75347682D02*
X127127295Y-75347682D01*
X127127295Y-75347682D02*
X127508247Y-75252444D01*
X127508247Y-75252444D02*
X127698723Y-75157206D01*
X127698723Y-75157206D02*
X127889200Y-74966730D01*
X127889200Y-74966730D02*
X127984438Y-74681015D01*
X127984438Y-74681015D02*
X127984438Y-74204825D01*
D13*
%TA.AperFunction,EtchedComponent*%
%TO.C,G\u002A\u002A\u002A*%
G36*
X222473018Y-107507538D02*
G01*
X222231178Y-108011001D01*
X222111886Y-108142020D01*
X221436768Y-108476496D01*
X220514128Y-108301645D01*
X220325495Y-108189958D01*
X220414641Y-107952539D01*
X221037247Y-107576850D01*
X221627249Y-107331708D01*
X222236176Y-107268186D01*
X222473018Y-107507538D01*
G37*
%TD.AperFunction*%
%TA.AperFunction,EtchedComponent*%
G36*
X188207018Y-104736893D02*
G01*
X188495065Y-105242355D01*
X188296054Y-105961447D01*
X187920385Y-106368361D01*
X187337310Y-106613180D01*
X187164737Y-106584009D01*
X186826436Y-106212165D01*
X186758339Y-105602838D01*
X186952559Y-104999058D01*
X187401211Y-104643854D01*
X187546391Y-104613622D01*
X188207018Y-104736893D01*
G37*
%TD.AperFunction*%
%TA.AperFunction,EtchedComponent*%
G36*
X220666142Y-103805541D02*
G01*
X220904750Y-104462813D01*
X220792626Y-105230421D01*
X220156906Y-105949638D01*
X220059982Y-106024596D01*
X219292705Y-106509456D01*
X218817740Y-106623623D01*
X218714296Y-106378862D01*
X219061586Y-105786940D01*
X219519547Y-104981348D01*
X219711506Y-104196046D01*
X219711621Y-104176801D01*
X219885384Y-103621357D01*
X220264956Y-103511330D01*
X220666142Y-103805541D01*
G37*
%TD.AperFunction*%
%TA.AperFunction,EtchedComponent*%
G36*
X221917200Y-106031093D02*
G01*
X221747998Y-106672018D01*
X221201012Y-107171198D01*
X220686759Y-107385119D01*
X220181877Y-107510658D01*
X219749008Y-107429280D01*
X219251790Y-107241922D01*
X218917210Y-107048453D01*
X218962192Y-106948800D01*
X219077008Y-106921810D01*
X219657603Y-106644531D01*
X220426193Y-106169568D01*
X220728975Y-105975111D01*
X221379974Y-105641679D01*
X221724273Y-105594671D01*
X221917200Y-106031093D01*
G37*
%TD.AperFunction*%
%TA.AperFunction,EtchedComponent*%
G36*
X215657002Y-115256582D02*
G01*
X215884832Y-115487319D01*
X216161753Y-116080830D01*
X216098904Y-116949091D01*
X216075068Y-117072991D01*
X215899125Y-117843609D01*
X215753243Y-118277961D01*
X215410102Y-118397279D01*
X214895185Y-118115878D01*
X214354174Y-117566843D01*
X213926972Y-116892959D01*
X213753482Y-116237011D01*
X213908646Y-115812370D01*
X214380642Y-115236637D01*
X214785604Y-114903699D01*
X215154757Y-114864053D01*
X215657002Y-115256582D01*
G37*
%TD.AperFunction*%
%TA.AperFunction,EtchedComponent*%
G36*
X216241034Y-101607613D02*
G01*
X217481495Y-101902040D01*
X218386297Y-102566934D01*
X218884805Y-103483258D01*
X218906387Y-104531974D01*
X218380410Y-105594044D01*
X218098232Y-105842799D01*
X217540775Y-105956817D01*
X216686683Y-105781237D01*
X215412736Y-105304015D01*
X214492726Y-104938437D01*
X213916546Y-104794741D01*
X213532061Y-104880682D01*
X213143957Y-105186108D01*
X213067415Y-105255251D01*
X212701715Y-105547707D01*
X212636586Y-105403517D01*
X212810305Y-104740190D01*
X213113516Y-103929898D01*
X213901555Y-102720470D01*
X214907197Y-101906169D01*
X216012183Y-101602869D01*
X216241034Y-101607613D01*
G37*
%TD.AperFunction*%
%TA.AperFunction,EtchedComponent*%
G36*
X187187459Y-107261635D02*
G01*
X187737577Y-107524002D01*
X188489030Y-107989631D01*
X188655640Y-108103549D01*
X189211728Y-108528858D01*
X189298603Y-108758884D01*
X188973326Y-108901014D01*
X188698717Y-109016902D01*
X188479003Y-109336384D01*
X188377883Y-109983823D01*
X188353482Y-111108338D01*
X188377442Y-111999457D01*
X188531939Y-113050766D01*
X188846251Y-113646337D01*
X188933743Y-113735925D01*
X189100653Y-114002466D01*
X188844020Y-114115584D01*
X188062300Y-114139106D01*
X186785580Y-114139106D01*
X186785580Y-110689723D01*
X186800065Y-109574239D01*
X186860209Y-108349776D01*
X186958399Y-107535736D01*
X187085235Y-107240341D01*
X187187459Y-107261635D01*
G37*
%TD.AperFunction*%
%TA.AperFunction,EtchedComponent*%
G36*
X223433959Y-113736407D02*
G01*
X223401362Y-114789626D01*
X223363703Y-115114470D01*
X222930752Y-116646026D01*
X222053845Y-117820774D01*
X220645840Y-118764415D01*
X219890433Y-119117479D01*
X218782000Y-119421247D01*
X217870847Y-119288998D01*
X216991547Y-118718660D01*
X216488837Y-118231432D01*
X216283017Y-117732875D01*
X216427976Y-117072364D01*
X216458741Y-116990529D01*
X216866512Y-116384725D01*
X217653514Y-115759130D01*
X218927863Y-115025210D01*
X219208708Y-114879094D01*
X220203769Y-114390131D01*
X220930925Y-114077779D01*
X221248980Y-114004152D01*
X221169796Y-114286881D01*
X220780983Y-114807243D01*
X220181877Y-115479225D01*
X221204516Y-114956091D01*
X221276504Y-114918254D01*
X222072265Y-114378938D01*
X222612662Y-113815661D01*
X222956265Y-113359744D01*
X223282122Y-113255493D01*
X223433959Y-113736407D01*
G37*
%TD.AperFunction*%
%TA.AperFunction,EtchedComponent*%
G36*
X209789266Y-107561466D02*
G01*
X211079136Y-107913137D01*
X212089368Y-108692901D01*
X212760433Y-109766120D01*
X213032803Y-110998155D01*
X212846947Y-112254369D01*
X212143337Y-113400121D01*
X211559335Y-113846581D01*
X210441753Y-114159039D01*
X209267344Y-113999414D01*
X208251574Y-113369409D01*
X207851907Y-112922539D01*
X207499235Y-112229487D01*
X207690690Y-111786412D01*
X208422617Y-111630464D01*
X208434459Y-111630489D01*
X209090912Y-111726895D01*
X209363358Y-111954149D01*
X209525315Y-112223979D01*
X210068914Y-112556926D01*
X210690282Y-112603851D01*
X211289887Y-112214752D01*
X211705097Y-111500984D01*
X211880800Y-110622263D01*
X211761884Y-109738306D01*
X211293235Y-109008829D01*
X210882964Y-108696637D01*
X210496387Y-108710479D01*
X209911058Y-109117019D01*
X209772818Y-109219665D01*
X208924890Y-109639809D01*
X208151801Y-109734951D01*
X207661446Y-109472260D01*
X207620162Y-109352232D01*
X207785530Y-108827670D01*
X208278944Y-108236564D01*
X208927547Y-107753715D01*
X209558480Y-107553921D01*
X209789266Y-107561466D01*
G37*
%TD.AperFunction*%
%TA.AperFunction,EtchedComponent*%
G36*
X207173939Y-111027832D02*
G01*
X207008584Y-112254198D01*
X206399319Y-113309366D01*
X205716067Y-113839772D01*
X204598636Y-114151955D01*
X203430654Y-114002306D01*
X202355446Y-113444277D01*
X201516338Y-112531319D01*
X201056655Y-111316884D01*
X201012495Y-110674226D01*
X201059114Y-110462720D01*
X202993620Y-110462720D01*
X203083092Y-111446981D01*
X203618014Y-112238977D01*
X204049471Y-112650305D01*
X204375833Y-113120803D01*
X204440928Y-113248707D01*
X204766802Y-113307130D01*
X205185348Y-112910687D01*
X205580777Y-112152433D01*
X205875468Y-110931102D01*
X205825256Y-109794755D01*
X205421206Y-108987430D01*
X205311131Y-108879253D01*
X204864308Y-108559834D01*
X204421364Y-108625579D01*
X203745045Y-109091171D01*
X203339942Y-109525447D01*
X202993620Y-110462720D01*
X201059114Y-110462720D01*
X201298064Y-109378615D01*
X202022544Y-108320200D01*
X203091753Y-107667853D01*
X203265313Y-107615013D01*
X203977009Y-107480182D01*
X204346074Y-107547193D01*
X204587593Y-107736571D01*
X205200240Y-108000562D01*
X205402451Y-108074369D01*
X206331282Y-108762635D01*
X206934975Y-109805551D01*
X207155028Y-110931102D01*
X207173939Y-111027832D01*
G37*
%TD.AperFunction*%
%TA.AperFunction,EtchedComponent*%
G36*
X221518835Y-108994156D02*
G01*
X222023780Y-109481239D01*
X222060971Y-110112497D01*
X221603200Y-110655354D01*
X220772277Y-111152863D01*
X219841618Y-111465506D01*
X219078079Y-111471685D01*
X218631910Y-111386548D01*
X218583489Y-111581136D01*
X218554468Y-111948032D01*
X218088030Y-112267831D01*
X217360055Y-112447424D01*
X216557312Y-112410375D01*
X216297038Y-112359496D01*
X215775719Y-112374786D01*
X215634963Y-112702176D01*
X215552488Y-112978255D01*
X215142142Y-113655156D01*
X214503288Y-114449187D01*
X213746284Y-115198712D01*
X213202902Y-115481813D01*
X212904095Y-115222002D01*
X212812741Y-114418607D01*
X212938382Y-113499929D01*
X213351537Y-112513999D01*
X213950776Y-111758729D01*
X214630015Y-111361592D01*
X215283172Y-111450058D01*
X215432415Y-111453664D01*
X215521163Y-111078324D01*
X215538504Y-110938366D01*
X215915463Y-110588140D01*
X216606089Y-110411448D01*
X217381916Y-110441794D01*
X218014478Y-110712681D01*
X218060421Y-110750459D01*
X218350836Y-110921419D01*
X218287659Y-110612820D01*
X218265047Y-110470466D01*
X218522218Y-109942208D01*
X219140746Y-109400655D01*
X219940326Y-108978452D01*
X220740653Y-108808242D01*
X221518835Y-108994156D01*
G37*
%TD.AperFunction*%
%TA.AperFunction,EtchedComponent*%
G36*
X186158420Y-111111851D02*
G01*
X186120607Y-111845979D01*
X185854538Y-112681766D01*
X185217679Y-113463702D01*
X184772601Y-113941069D01*
X184495148Y-114397065D01*
X184346987Y-114992258D01*
X184287717Y-115889287D01*
X184276938Y-117250787D01*
X184273241Y-117736941D01*
X184220281Y-118980240D01*
X184113245Y-119800929D01*
X183963358Y-120097131D01*
X183857638Y-120013051D01*
X183693571Y-119476285D01*
X183612708Y-118607624D01*
X183575637Y-117118118D01*
X183265204Y-118607624D01*
X183198287Y-118901013D01*
X182869646Y-119783173D01*
X182502984Y-120057439D01*
X182139484Y-119719343D01*
X181820332Y-118764415D01*
X181521880Y-117431699D01*
X181488298Y-118764415D01*
X181466388Y-119193390D01*
X181311176Y-119886940D01*
X180984346Y-120097131D01*
X180916126Y-120090579D01*
X180715284Y-119919280D01*
X180592379Y-119436862D01*
X180530810Y-118538186D01*
X180513975Y-117118118D01*
X180514136Y-116718355D01*
X180525664Y-115476689D01*
X180576716Y-114715357D01*
X180696770Y-114316933D01*
X180915304Y-114163992D01*
X181261794Y-114139106D01*
X181574509Y-114163665D01*
X181885274Y-114362416D01*
X182075768Y-114888163D01*
X182228398Y-115890198D01*
X182330831Y-116631024D01*
X182453066Y-117314274D01*
X182535629Y-117536494D01*
X182585522Y-117370530D01*
X182701051Y-116726593D01*
X182834148Y-115785402D01*
X182880204Y-115404378D01*
X182930028Y-114605809D01*
X182824844Y-114231872D01*
X182538926Y-114139106D01*
X182416406Y-114119766D01*
X181813270Y-113803513D01*
X181117014Y-113222487D01*
X180557093Y-112559395D01*
X180271238Y-111819206D01*
X180200395Y-110756606D01*
X180203522Y-110691485D01*
X182047740Y-110691485D01*
X182174675Y-111633014D01*
X182659482Y-112318238D01*
X183022008Y-112630898D01*
X183365037Y-113109921D01*
X183452372Y-113250805D01*
X183838019Y-113266711D01*
X184225828Y-112891394D01*
X184680707Y-111959904D01*
X184884399Y-110840886D01*
X184805182Y-109771131D01*
X184411330Y-108987430D01*
X184263770Y-108840983D01*
X183882788Y-108554034D01*
X183500255Y-108606640D01*
X182854794Y-109001097D01*
X182809017Y-109032537D01*
X182264060Y-109741907D01*
X182047740Y-110691485D01*
X180203522Y-110691485D01*
X180241400Y-109902703D01*
X180473315Y-109088548D01*
X180992017Y-108415722D01*
X181133610Y-108283675D01*
X181823320Y-107806666D01*
X182542064Y-107490786D01*
X183107228Y-107399784D01*
X183336198Y-107597406D01*
X183397814Y-107727572D01*
X183830690Y-107867501D01*
X183951610Y-107887011D01*
X184548453Y-108203403D01*
X185241801Y-108784120D01*
X185679053Y-109274904D01*
X186060290Y-110054658D01*
X186133269Y-110840886D01*
X186158420Y-111111851D01*
G37*
%TD.AperFunction*%
%TA.AperFunction,EtchedComponent*%
G36*
X172283887Y-110085047D02*
G01*
X172360889Y-111087360D01*
X172299441Y-112083480D01*
X172024454Y-112837886D01*
X171420148Y-113560189D01*
X170993166Y-114015697D01*
X170706130Y-114473309D01*
X170552499Y-115063083D01*
X170490762Y-115949997D01*
X170490168Y-116020587D01*
X170479407Y-117299030D01*
X170479236Y-117468564D01*
X170456387Y-118779807D01*
X170382450Y-119583317D01*
X170239357Y-119986593D01*
X170009037Y-120097131D01*
X169845387Y-120061772D01*
X169609136Y-119675686D01*
X169538667Y-118780094D01*
X169538392Y-118721686D01*
X169449476Y-117956610D01*
X169254598Y-117763911D01*
X169031330Y-118118908D01*
X168857240Y-118996918D01*
X168674413Y-119650909D01*
X168205951Y-120039047D01*
X167898917Y-120026480D01*
X167706400Y-119695847D01*
X167657185Y-118884309D01*
X167663632Y-118623946D01*
X167769580Y-117843313D01*
X167964344Y-117435667D01*
X168094406Y-117243360D01*
X167918470Y-116680539D01*
X167730546Y-116136980D01*
X167735775Y-116020587D01*
X168911506Y-116020587D01*
X168970308Y-116385109D01*
X169225086Y-116647748D01*
X169407347Y-116530145D01*
X169538667Y-116020587D01*
X169479865Y-115656066D01*
X169225086Y-115393427D01*
X169042826Y-115511030D01*
X168911506Y-116020587D01*
X167735775Y-116020587D01*
X167765347Y-115362288D01*
X168047895Y-114720343D01*
X168513660Y-114452686D01*
X168683828Y-114412658D01*
X168591034Y-114136390D01*
X167984413Y-113567598D01*
X167756880Y-113366932D01*
X167228330Y-112742622D01*
X167152420Y-112313277D01*
X167489600Y-112076273D01*
X168092985Y-111954270D01*
X168660235Y-112003605D01*
X168911506Y-112236493D01*
X169060462Y-112465194D01*
X169597597Y-112746698D01*
X170238757Y-112764252D01*
X170851918Y-112262720D01*
X171092871Y-111925441D01*
X171398661Y-111158069D01*
X171297242Y-110594962D01*
X170792988Y-110376143D01*
X170427258Y-110463446D01*
X170165827Y-110846513D01*
X170065496Y-111092187D01*
X169583921Y-111266529D01*
X168597926Y-111316884D01*
X167030025Y-111316884D01*
X167030025Y-110205099D01*
X167100041Y-109721511D01*
X168759494Y-109721511D01*
X168982207Y-109987005D01*
X169679784Y-110011793D01*
X170763429Y-109788960D01*
X171148016Y-109667552D01*
X171324352Y-109454850D01*
X170987845Y-109047897D01*
X170908126Y-108970906D01*
X170376138Y-108686657D01*
X169701938Y-108862346D01*
X169173477Y-109187570D01*
X168781808Y-109634667D01*
X168759494Y-109721511D01*
X167100041Y-109721511D01*
X167126426Y-109539272D01*
X167607417Y-108559543D01*
X168356842Y-107836137D01*
X169221866Y-107553921D01*
X169345525Y-107560827D01*
X170229131Y-107834715D01*
X171197653Y-108393881D01*
X171968914Y-109081420D01*
X172088828Y-109300147D01*
X172127274Y-109454850D01*
X172283887Y-110085047D01*
G37*
%TD.AperFunction*%
%TA.AperFunction,EtchedComponent*%
G36*
X195252247Y-112239843D02*
G01*
X195252748Y-112725805D01*
X195268752Y-114091733D01*
X195323993Y-114992073D01*
X195440877Y-115552829D01*
X195641805Y-115900002D01*
X195949181Y-116159596D01*
X195980618Y-116181669D01*
X196304487Y-116441356D01*
X196271192Y-116579598D01*
X195790769Y-116633012D01*
X194773255Y-116638212D01*
X194453021Y-116635063D01*
X193595900Y-116592405D01*
X193282901Y-116489109D01*
X193449161Y-116309050D01*
X193820953Y-115876486D01*
X193997926Y-114893265D01*
X193997527Y-114713213D01*
X193937771Y-114087112D01*
X193643834Y-113901114D01*
X192927657Y-113997891D01*
X192902029Y-114002605D01*
X191964976Y-114078279D01*
X191199527Y-113989877D01*
X190461732Y-113469995D01*
X189926488Y-112514756D01*
X189656610Y-111306531D01*
X189668996Y-110836446D01*
X191489284Y-110836446D01*
X191640939Y-111598284D01*
X192060898Y-112369129D01*
X192621687Y-112961845D01*
X193194936Y-113243265D01*
X193652271Y-113080223D01*
X193770964Y-112854037D01*
X193925784Y-112007292D01*
X193935969Y-110797624D01*
X193917307Y-110477331D01*
X193808657Y-109538828D01*
X193608996Y-109048125D01*
X193269039Y-108862198D01*
X192992621Y-108847993D01*
X192258429Y-109167887D01*
X191706819Y-109886721D01*
X191489284Y-110836446D01*
X189668996Y-110836446D01*
X189690504Y-110020206D01*
X190066575Y-108830669D01*
X190544070Y-108174493D01*
X191454437Y-107620181D01*
X192470485Y-107573696D01*
X193424469Y-108072892D01*
X193711752Y-108323060D01*
X193953108Y-108417234D01*
X193997926Y-108072892D01*
X193998822Y-107943933D01*
X194066039Y-107627905D01*
X194366407Y-107611392D01*
X195075043Y-107859740D01*
X195629867Y-108006601D01*
X195879407Y-107861225D01*
X196033606Y-107739357D01*
X196660055Y-107624866D01*
X197604099Y-107596653D01*
X198313180Y-107634201D01*
X199045053Y-107737644D01*
X199328790Y-107874752D01*
X199526149Y-108081979D01*
X200112741Y-108309851D01*
X200350596Y-108385171D01*
X200811248Y-108688413D01*
X200856960Y-108986968D01*
X200426321Y-109121822D01*
X200288716Y-109175882D01*
X200050307Y-109661658D01*
X199925723Y-110503782D01*
X199911917Y-111520486D01*
X200005845Y-112530003D01*
X200204460Y-113350566D01*
X200504716Y-113800408D01*
X200729394Y-113989949D01*
X200502365Y-114095773D01*
X199720766Y-114129570D01*
X198388049Y-114139106D01*
X198388049Y-112434829D01*
X198344274Y-111302191D01*
X198118652Y-110043394D01*
X197710023Y-109338773D01*
X197128453Y-109214061D01*
X196737427Y-109255371D01*
X196331584Y-109092383D01*
X196225507Y-108980336D01*
X195704111Y-108808242D01*
X195590125Y-108835587D01*
X195423294Y-109083533D01*
X195319819Y-109669395D01*
X195267028Y-110689417D01*
X195265996Y-110797624D01*
X195252247Y-112239843D01*
G37*
%TD.AperFunction*%
%TA.AperFunction,EtchedComponent*%
G36*
X178637835Y-111909469D02*
G01*
X178705067Y-112908217D01*
X178875351Y-113489752D01*
X179181259Y-113800408D01*
X179474119Y-113995315D01*
X179541765Y-114129570D01*
X179527797Y-114137850D01*
X179505533Y-114507897D01*
X179587950Y-115316918D01*
X179760454Y-116412563D01*
X179770510Y-116468932D01*
X179904296Y-117274908D01*
X179973230Y-117690188D01*
X180121518Y-118738210D01*
X180183899Y-119391575D01*
X180106872Y-119830881D01*
X179730025Y-120097131D01*
X179510665Y-120042495D01*
X179259654Y-119626760D01*
X179205019Y-119407401D01*
X178789284Y-119156390D01*
X178569924Y-119211025D01*
X178318914Y-119626760D01*
X178202510Y-119901058D01*
X177691753Y-120097131D01*
X177328647Y-120082550D01*
X177065021Y-120018736D01*
X177073705Y-119954972D01*
X177161474Y-119425243D01*
X177323577Y-118483133D01*
X177534963Y-117274908D01*
X177578406Y-117028363D01*
X178681147Y-117028363D01*
X178729915Y-117823674D01*
X178759232Y-117912646D01*
X178840629Y-117845410D01*
X178873323Y-117274908D01*
X178870290Y-117062150D01*
X178820806Y-116628549D01*
X178729915Y-116726143D01*
X178681147Y-117028363D01*
X177578406Y-117028363D01*
X177746318Y-116075448D01*
X177907990Y-115080286D01*
X177957600Y-114500850D01*
X177889560Y-114225362D01*
X177698280Y-114142040D01*
X177378173Y-114139106D01*
X177098473Y-114178841D01*
X176909721Y-114380236D01*
X176805222Y-114859690D01*
X176760483Y-115733538D01*
X176753724Y-116721586D01*
X176751012Y-117118118D01*
X176749978Y-117550179D01*
X176722931Y-118822175D01*
X176646759Y-119600574D01*
X176504863Y-119990514D01*
X176280642Y-120097131D01*
X175950509Y-119903250D01*
X175810272Y-119156390D01*
X175810252Y-119145178D01*
X175728590Y-118488302D01*
X175535889Y-118215649D01*
X175531034Y-118215794D01*
X175284153Y-118497478D01*
X175073358Y-119156390D01*
X175028159Y-119373812D01*
X174879113Y-119788160D01*
X174567922Y-120003320D01*
X173939585Y-120084555D01*
X172839099Y-120097131D01*
X172365035Y-120093533D01*
X171413724Y-120036793D01*
X170928684Y-119890162D01*
X170792988Y-119626760D01*
X170946425Y-119319948D01*
X171576938Y-119156390D01*
X171721408Y-119153079D01*
X172231372Y-118969186D01*
X172360889Y-118372439D01*
X172225524Y-117772225D01*
X171733728Y-117588489D01*
X171367998Y-117501186D01*
X171106568Y-117118118D01*
X171222972Y-116843821D01*
X171733728Y-116647748D01*
X172188876Y-116503727D01*
X172380871Y-116082113D01*
X172198280Y-115613832D01*
X171655333Y-115336842D01*
X171124417Y-115152345D01*
X171090728Y-115083921D01*
X173523334Y-115083921D01*
X173545741Y-116098411D01*
X173561431Y-116450196D01*
X173633815Y-117975202D01*
X173699731Y-118936879D01*
X173777054Y-119388496D01*
X173883658Y-119383319D01*
X174037418Y-118974614D01*
X174256208Y-118215649D01*
X174434833Y-117547846D01*
X174579213Y-116721586D01*
X174519671Y-116066612D01*
X174256208Y-115316630D01*
X174143488Y-115052927D01*
X173820709Y-114401814D01*
X173615210Y-114140133D01*
X173551239Y-114376359D01*
X173523334Y-115083921D01*
X171090728Y-115083921D01*
X170944524Y-114786969D01*
X171240506Y-114416116D01*
X171968914Y-114197633D01*
X172988049Y-114099370D01*
X172991471Y-112315404D01*
X174880643Y-112315404D01*
X174915982Y-113303805D01*
X175075603Y-114572617D01*
X175339901Y-115393427D01*
X175788048Y-116177378D01*
X175799160Y-115208576D01*
X175799743Y-115172436D01*
X175986706Y-114363952D01*
X176594222Y-113882583D01*
X176936385Y-113697218D01*
X177224843Y-113351622D01*
X177350595Y-112741420D01*
X177378173Y-111685788D01*
X177340835Y-110690623D01*
X177164088Y-109850180D01*
X176804716Y-109327213D01*
X176241938Y-108928280D01*
X175633730Y-108888694D01*
X175206437Y-109436407D01*
X174956571Y-110576838D01*
X174880643Y-112315404D01*
X172991471Y-112315404D01*
X172992672Y-111688991D01*
X173023455Y-110468262D01*
X173190249Y-109146006D01*
X173540736Y-108289378D01*
X174118556Y-107808290D01*
X174967349Y-107612658D01*
X175345660Y-107593288D01*
X176146804Y-107732592D01*
X176752793Y-108239819D01*
X177081286Y-108612707D01*
X177310569Y-108731290D01*
X177367740Y-108395135D01*
X177579766Y-108029496D01*
X178220831Y-108058591D01*
X179259654Y-108511505D01*
X179328100Y-108549402D01*
X179544933Y-108770367D01*
X179181259Y-108977493D01*
X178993542Y-109083074D01*
X178771025Y-109443857D01*
X178661643Y-110147337D01*
X178632494Y-111334851D01*
X178635756Y-111685788D01*
X178637835Y-111909469D01*
G37*
%TD.AperFunction*%
%TD*%
D14*
%TO.P,R4,1*%
%TO.N,+3V3*%
X120548400Y-91440000D03*
%TO.P,R4,2*%
%TO.N,WK_UP*%
X120548400Y-99060000D03*
%TD*%
D15*
%TO.P,SW2,*%
%TO.N,*%
X175801867Y-49010000D03*
D14*
%TO.P,SW2,1,1*%
%TO.N,R1*%
X173261867Y-54090000D03*
%TO.P,SW2,2,2*%
%TO.N,C2*%
X179611867Y-51550000D03*
%TD*%
D16*
%TO.P,J7,1,Pin_1*%
%TO.N,GND*%
X101967600Y-49653800D03*
D17*
%TO.P,J7,2,Pin_2*%
%TO.N,Net-(J7-Pin_2)*%
X101967600Y-47113800D03*
%TO.P,J7,3,Pin_3*%
%TO.N,+5V*%
X101967600Y-44573800D03*
%TD*%
D15*
%TO.P,SW8,*%
%TO.N,*%
X216408000Y-69494400D03*
D14*
%TO.P,SW8,1,1*%
%TO.N,R2*%
X213868000Y-74574400D03*
%TO.P,SW8,2,2*%
%TO.N,C4*%
X220218000Y-72034400D03*
%TD*%
D18*
%TO.P,U1,J2-1,3V3*%
%TO.N,+3V3*%
X139446000Y-82169000D03*
D19*
%TO.P,U1,J2-2,EN*%
%TO.N,unconnected-(U1-EN-PadJ2-2)*%
X139446000Y-79629000D03*
%TO.P,U1,J2-3,SENSOR_VP*%
%TO.N,unconnected-(U1-SENSOR_VP-PadJ2-3)*%
X139446000Y-77089000D03*
%TO.P,U1,J2-4,SENSOR_VN*%
%TO.N,unconnected-(U1-SENSOR_VN-PadJ2-4)*%
X139446000Y-74549000D03*
%TO.P,U1,J2-5,IO34*%
%TO.N,unconnected-(U1-IO34-PadJ2-5)*%
X139446000Y-72009000D03*
%TO.P,U1,J2-6,IO35*%
%TO.N,VBat*%
X139446000Y-69469000D03*
%TO.P,U1,J2-7,IO32*%
%TO.N,C4*%
X139446000Y-66929000D03*
%TO.P,U1,J2-8,IO33*%
%TO.N,C3*%
X139446000Y-64389000D03*
%TO.P,U1,J2-9,IO25*%
%TO.N,C2*%
X139446000Y-61849000D03*
%TO.P,U1,J2-10,IO26*%
%TO.N,C1*%
X139446000Y-59309000D03*
%TO.P,U1,J2-11,IO27*%
%TO.N,R3*%
X139446000Y-56769000D03*
%TO.P,U1,J2-12,IO14*%
%TO.N,R2*%
X139446000Y-54229000D03*
%TO.P,U1,J2-13,IO12*%
%TO.N,R1*%
X139446000Y-51689000D03*
%TO.P,U1,J2-16,SD2*%
%TO.N,unconnected-(U1-SD2-PadJ2-16)*%
X139446000Y-44069000D03*
%TO.P,U1,J2-17,SD3*%
%TO.N,unconnected-(U1-SD3-PadJ2-17)*%
X139446000Y-41529000D03*
%TO.P,U1,J2-18,CMD*%
%TO.N,unconnected-(U1-CMD-PadJ2-18)*%
X139446000Y-38989000D03*
%TO.P,U1,J2-19,EXT_5V*%
%TO.N,+5V*%
X139446000Y-36449000D03*
%TO.P,U1,J3-1,GND3*%
%TO.N,GND*%
X114046000Y-82169000D03*
%TO.P,U1,J3-2,IO23*%
%TO.N,MOSI*%
X114046000Y-79629000D03*
%TO.P,U1,J3-3,IO22*%
%TO.N,SDA*%
X114046000Y-77089000D03*
%TO.P,U1,J3-4,TXD0*%
%TO.N,unconnected-(U1-TXD0-PadJ3-4)*%
X114046000Y-74549000D03*
%TO.P,U1,J3-5,RXD0*%
%TO.N,unconnected-(U1-RXD0-PadJ3-5)*%
X114046000Y-72009000D03*
%TO.P,U1,J3-6,IO21*%
%TO.N,SCL*%
X114046000Y-69469000D03*
%TO.P,U1,J3-7,GND2*%
%TO.N,unconnected-(U1-GND2-PadJ3-7)*%
X114046000Y-66929000D03*
%TO.P,U1,J3-8,IO19*%
%TO.N,BLK*%
X114046000Y-64389000D03*
%TO.P,U1,J3-9,IO18*%
%TO.N,SCLK*%
X114046000Y-61849000D03*
%TO.P,U1,J3-10,IO5*%
%TO.N,unconnected-(U1-IO5-PadJ3-10)*%
X114046000Y-59309000D03*
%TO.P,U1,J3-11,IO17*%
%TO.N,SW_2*%
X114046000Y-56769000D03*
%TO.P,U1,J3-12,IO16*%
%TO.N,unconnected-(U1-IO16-PadJ3-12)*%
X114046000Y-54229000D03*
%TO.P,U1,J3-13,IO4*%
%TO.N,RES*%
X114046000Y-51689000D03*
%TO.P,U1,J3-14,IO0*%
%TO.N,WK_UP*%
X114046000Y-49149000D03*
%TO.P,U1,J3-15,IO2*%
%TO.N,DC*%
X114046000Y-46609000D03*
%TO.P,U1,J3-16,IO15*%
%TO.N,SW_1*%
X114046000Y-44069000D03*
%TO.P,U1,J3-17,SD1*%
%TO.N,Argb*%
X114046000Y-41529000D03*
%TO.P,U1,J3-18,SD0*%
%TO.N,unconnected-(U1-SD0-PadJ3-18)*%
X114046000Y-38989000D03*
%TD*%
D20*
%TO.P,Display1,*%
%TO.N,*%
X70670800Y-82016200D03*
X104690800Y-82016200D03*
X70670800Y-59106200D03*
X104690800Y-59106200D03*
D21*
%TO.P,Display1,1,Gnd*%
%TO.N,GND*%
X69265800Y-78181200D03*
D19*
%TO.P,Display1,2,Vcc*%
%TO.N,+3V3*%
X69265800Y-75641200D03*
%TO.P,Display1,3,SCL*%
%TO.N,SCLK*%
X69265800Y-73101200D03*
%TO.P,Display1,4,SDA*%
%TO.N,MOSI*%
X69265800Y-70561200D03*
%TO.P,Display1,5,RES*%
%TO.N,RES*%
X69265800Y-68021200D03*
%TO.P,Display1,6,DC*%
%TO.N,DC*%
X69265800Y-65481200D03*
%TO.P,Display1,7,BLK*%
%TO.N,BLK*%
X69265800Y-62941200D03*
%TD*%
D15*
%TO.P,SW10,*%
%TO.N,*%
X175801867Y-90170000D03*
D14*
%TO.P,SW10,1,1*%
%TO.N,R3*%
X173261867Y-95250000D03*
%TO.P,SW10,2,2*%
%TO.N,C2*%
X179611867Y-92710000D03*
%TD*%
%TO.P,R3,1*%
%TO.N,+3V3*%
X113995200Y-91490800D03*
%TO.P,R3,2*%
%TO.N,SW_2*%
X113995200Y-99110800D03*
%TD*%
D22*
%TO.P,J1,1,Pin_1*%
%TO.N,Net-(J1-Pin_1)*%
X62629413Y-66245202D03*
D23*
%TO.P,J1,2,Pin_2*%
%TO.N,Net-(J1-Pin_2)*%
X60129413Y-66245202D03*
%TD*%
D24*
%TO.P,MD1,*%
%TO.N,*%
X79575000Y-114775000D03*
X79575000Y-130775000D03*
X95575000Y-114775000D03*
X95575000Y-130775000D03*
D19*
%TO.P,MD1,1,VCC*%
%TO.N,+3V3*%
X81075000Y-120235000D03*
%TO.P,MD1,2,OUT*%
%TO.N,unconnected-(MD1-OUT-Pad2)*%
X81075000Y-122775000D03*
%TO.P,MD1,3,GND*%
%TO.N,GND*%
X81075000Y-125315000D03*
%TO.P,MD1,4,GPO*%
%TO.N,unconnected-(MD1-GPO-Pad4)*%
X94077400Y-126280200D03*
%TO.P,MD1,5,SDA*%
%TO.N,SDA*%
X94077400Y-123740200D03*
%TO.P,MD1,6,SCL*%
%TO.N,SCL*%
X94077400Y-121200200D03*
%TO.P,MD1,7,DIR*%
%TO.N,unconnected-(MD1-DIR-Pad7)*%
X94077400Y-118660200D03*
%TD*%
D15*
%TO.P,SW5,*%
%TO.N,*%
X155498800Y-69494400D03*
D14*
%TO.P,SW5,1,1*%
%TO.N,R2*%
X152958800Y-74574400D03*
%TO.P,SW5,2,2*%
%TO.N,C1*%
X159308800Y-72034400D03*
%TD*%
D15*
%TO.P,SW14,*%
%TO.N,*%
X134616000Y-112826800D03*
D14*
%TO.P,SW14,1,1*%
%TO.N,GND*%
X132076000Y-117906800D03*
%TO.P,SW14,2,2*%
%TO.N,SW_2*%
X138426000Y-115366800D03*
%TD*%
D15*
%TO.P,SW7,*%
%TO.N,*%
X196104933Y-69494400D03*
D14*
%TO.P,SW7,1,1*%
%TO.N,R2*%
X193564933Y-74574400D03*
%TO.P,SW7,2,2*%
%TO.N,C3*%
X199914933Y-72034400D03*
%TD*%
D25*
%TO.P,D2,1,K*%
%TO.N,SW_2*%
X126919800Y-91440000D03*
D14*
%TO.P,D2,2,A*%
%TO.N,WK_UP*%
X126919800Y-99060000D03*
%TD*%
D15*
%TO.P,SW12,*%
%TO.N,*%
X216408000Y-90170000D03*
D14*
%TO.P,SW12,1,1*%
%TO.N,R3*%
X213868000Y-95250000D03*
%TO.P,SW12,2,2*%
%TO.N,C4*%
X220218000Y-92710000D03*
%TD*%
D26*
%TO.P,U2,1,OUT+*%
%TO.N,Net-(SW15-C)*%
X89951200Y-51996000D03*
%TO.P,U2,2,OUT-*%
%TO.N,GND*%
X81451200Y-51996000D03*
%TO.P,U2,3,B-*%
%TO.N,Net-(J1-Pin_1)*%
X77451200Y-51996000D03*
%TO.P,U2,4,B+*%
%TO.N,Net-(J1-Pin_2)*%
X68951200Y-51996000D03*
%TD*%
D15*
%TO.P,SW13,*%
%TO.N,*%
X155397200Y-112826800D03*
D14*
%TO.P,SW13,1,1*%
%TO.N,GND*%
X152857200Y-117906800D03*
%TO.P,SW13,2,2*%
%TO.N,SW_1*%
X159207200Y-115366800D03*
%TD*%
%TO.P,R5,1*%
%TO.N,Argb*%
X107200000Y-43380000D03*
%TO.P,R5,2*%
%TO.N,Net-(J7-Pin_2)*%
X107200000Y-51000000D03*
%TD*%
D15*
%TO.P,SW1,*%
%TO.N,*%
X155498800Y-49022000D03*
D14*
%TO.P,SW1,1,1*%
%TO.N,R1*%
X152958800Y-54102000D03*
%TO.P,SW1,2,2*%
%TO.N,C1*%
X159308800Y-51562000D03*
%TD*%
%TO.P,C1,1*%
%TO.N,VBat*%
X58727013Y-82018602D03*
%TO.P,C1,2*%
%TO.N,GND*%
X63727013Y-82018602D03*
%TD*%
D15*
%TO.P,SW3,*%
%TO.N,*%
X196104933Y-49010000D03*
D14*
%TO.P,SW3,1,1*%
%TO.N,R1*%
X193564933Y-54090000D03*
%TO.P,SW3,2,2*%
%TO.N,C3*%
X199914933Y-51550000D03*
%TD*%
D15*
%TO.P,SW4,*%
%TO.N,*%
X216408000Y-49010000D03*
D14*
%TO.P,SW4,1,1*%
%TO.N,R1*%
X213868000Y-54090000D03*
%TO.P,SW4,2,2*%
%TO.N,C4*%
X220218000Y-51550000D03*
%TD*%
D27*
%TO.P,J4,1,Pin_1*%
%TO.N,unconnected-(J4-Pin_1-Pad1)*%
X60688549Y-136336458D03*
%TD*%
D15*
%TO.P,SW9,*%
%TO.N,*%
X155498800Y-90170000D03*
D14*
%TO.P,SW9,1,1*%
%TO.N,R3*%
X152958800Y-95250000D03*
%TO.P,SW9,2,2*%
%TO.N,C1*%
X159308800Y-92710000D03*
%TD*%
D15*
%TO.P,SW11,*%
%TO.N,*%
X196104933Y-90170000D03*
D14*
%TO.P,SW11,1,1*%
%TO.N,R3*%
X193564933Y-95250000D03*
%TO.P,SW11,2,2*%
%TO.N,C3*%
X199914933Y-92710000D03*
%TD*%
D15*
%TO.P,SW6,*%
%TO.N,*%
X175801867Y-69494400D03*
D14*
%TO.P,SW6,1,1*%
%TO.N,R2*%
X173261867Y-74574400D03*
%TO.P,SW6,2,2*%
%TO.N,C2*%
X179611867Y-72034400D03*
%TD*%
%TO.P,R2,1*%
%TO.N,+3V3*%
X139446000Y-91440000D03*
%TO.P,R2,2*%
%TO.N,SW_1*%
X139446000Y-99060000D03*
%TD*%
D28*
%TO.P,SW15,1,B*%
%TO.N,+5V*%
X101955600Y-38227000D03*
%TO.P,SW15,2,C*%
%TO.N,Net-(SW15-C)*%
X99415600Y-38227000D03*
%TO.P,SW15,3,A*%
%TO.N,unconnected-(SW15-A-Pad3)*%
X104495600Y-38227000D03*
%TD*%
D25*
%TO.P,D1,1,K*%
%TO.N,SW_1*%
X133032500Y-91440000D03*
D14*
%TO.P,D1,2,A*%
%TO.N,WK_UP*%
X133032500Y-99060000D03*
%TD*%
D27*
%TO.P,J3,1,Pin_1*%
%TO.N,unconnected-(J3-Pin_1-Pad1)*%
X114199000Y-136315010D03*
%TD*%
%TO.P,J5,1,Pin_1*%
%TO.N,unconnected-(J5-Pin_1-Pad1)*%
X226797010Y-40160535D03*
%TD*%
%TO.P,J2,1,Pin_1*%
%TO.N,unconnected-(J2-Pin_1-Pad1)*%
X226730007Y-119542000D03*
%TD*%
D14*
%TO.P,R7,1*%
%TO.N,VBat*%
X63942113Y-78510702D03*
%TO.P,R7,2*%
%TO.N,GND*%
X63942113Y-70890702D03*
%TD*%
%TO.P,R1,1*%
%TO.N,+3V3*%
X95250000Y-74371200D03*
%TO.P,R1,2*%
%TO.N,BLK*%
X95250000Y-66751200D03*
%TD*%
D27*
%TO.P,J6,1,Pin_1*%
%TO.N,unconnected-(J6-Pin_1-Pad1)*%
X60705993Y-40131987D03*
%TD*%
D14*
%TO.P,R6,1*%
%TO.N,Net-(J1-Pin_2)*%
X58608113Y-70890702D03*
%TO.P,R6,2*%
%TO.N,VBat*%
X58608113Y-78510702D03*
%TD*%
D29*
%TO.N,MOSI*%
X83134200Y-70561200D03*
X90678000Y-70561200D03*
%TO.N,BLK*%
X90678000Y-62941200D03*
X83185000Y-62941200D03*
%TO.N,R1*%
X197205600Y-59182000D03*
X177063400Y-59182000D03*
X182803800Y-59182000D03*
X202996800Y-59182000D03*
X156819600Y-59182000D03*
X162483800Y-59182000D03*
%TO.N,R2*%
X182676800Y-79806800D03*
X176758600Y-79806800D03*
X156819600Y-79806800D03*
X202971400Y-79806800D03*
X197205600Y-79806800D03*
X162483800Y-79806800D03*
%TO.N,+3V3*%
X85547200Y-91287600D03*
X124663200Y-86588600D03*
X94081600Y-91287600D03*
X135890000Y-86588600D03*
%TD*%
D30*
%TO.N,GND*%
X88037600Y-125350000D02*
X81935000Y-125350000D01*
X88112600Y-125275000D02*
X88037600Y-125350000D01*
X88112600Y-123537400D02*
X88112600Y-125275000D01*
X88100000Y-138277600D02*
X106197400Y-138277600D01*
X88112600Y-138265000D02*
X88100000Y-138277600D01*
X88112600Y-123537400D02*
X88112600Y-138265000D01*
D31*
%TO.N,SCLK*%
X88392000Y-61976000D02*
X88392000Y-69308000D01*
X84598800Y-73101200D02*
X69265800Y-73101200D01*
X90170000Y-60198000D02*
X88392000Y-61976000D01*
X98615500Y-60198000D02*
X90170000Y-60198000D01*
X88392000Y-69308000D02*
X84598800Y-73101200D01*
X100266500Y-61849000D02*
X98615500Y-60198000D01*
X114046000Y-61849000D02*
X100266500Y-61849000D01*
%TO.N,DC*%
X85344000Y-61214000D02*
X88900000Y-57658000D01*
X111125000Y-51206400D02*
X111125000Y-47625000D01*
X83870800Y-65481200D02*
X85344000Y-64008000D01*
X88900000Y-57658000D02*
X100507800Y-57658000D01*
X85344000Y-64008000D02*
X85344000Y-61214000D01*
X111125000Y-47625000D02*
X112141000Y-46609000D01*
X69265800Y-65481200D02*
X83870800Y-65481200D01*
X112141000Y-46609000D02*
X114046000Y-46609000D01*
X108407200Y-53924200D02*
X111125000Y-51206400D01*
X104241600Y-53924200D02*
X108407200Y-53924200D01*
X100507800Y-57658000D02*
X104241600Y-53924200D01*
D30*
%TO.N,VBat*%
X58608113Y-78510702D02*
X63942113Y-78510702D01*
X143281400Y-98602800D02*
X143281400Y-71170800D01*
X109931200Y-123266200D02*
X111074200Y-122123200D01*
X58727013Y-85828813D02*
X64693800Y-91795600D01*
X109931200Y-136956800D02*
X109931200Y-123266200D01*
X164363400Y-103301800D02*
X162356800Y-101295200D01*
X145973800Y-101295200D02*
X143281400Y-98602800D01*
X159156400Y-122123200D02*
X164363400Y-116916200D01*
X143281400Y-71170800D02*
X141579600Y-69469000D01*
X64693800Y-91795600D02*
X64693800Y-136245600D01*
X58608113Y-78510702D02*
X58608113Y-81899702D01*
X111074200Y-122123200D02*
X159156400Y-122123200D01*
X141579600Y-69469000D02*
X139446000Y-69469000D01*
X68326000Y-139877800D02*
X107010200Y-139877800D01*
X64693800Y-136245600D02*
X68326000Y-139877800D01*
X164363400Y-116916200D02*
X164363400Y-103301800D01*
X162356800Y-101295200D02*
X145973800Y-101295200D01*
X58727013Y-82018602D02*
X58727013Y-85828813D01*
X58608113Y-81899702D02*
X58727013Y-82018602D01*
X107010200Y-139877800D02*
X109931200Y-136956800D01*
%TO.N,GND*%
X69265800Y-78181200D02*
X66446400Y-78181200D01*
X66444398Y-82018602D02*
X66446400Y-82016600D01*
X114046000Y-82169000D02*
X114046000Y-85293200D01*
X108381800Y-121793000D02*
X112268000Y-117906800D01*
X152857200Y-117906800D02*
X132076000Y-117906800D01*
X63942113Y-70890702D02*
X66318702Y-70890702D01*
X108381800Y-136093200D02*
X108381800Y-121793000D01*
X114046000Y-85293200D02*
X113538000Y-85801200D01*
X81559400Y-56134000D02*
X99966000Y-56134000D01*
X101967600Y-54132400D02*
X101967600Y-49653800D01*
X66318702Y-70890702D02*
X66446400Y-71018400D01*
X101993000Y-49679200D02*
X101967600Y-49653800D01*
X67564000Y-56134000D02*
X81559400Y-56134000D01*
X112268000Y-117906800D02*
X132076000Y-117906800D01*
X66446400Y-82016600D02*
X66446400Y-127901700D01*
X66446400Y-135636000D02*
X69088000Y-138277600D01*
X81451200Y-56025800D02*
X81559400Y-56134000D01*
X81451200Y-51996000D02*
X81407000Y-51951800D01*
X106197400Y-138277600D02*
X108381800Y-136093200D01*
X63727013Y-82018602D02*
X66444398Y-82018602D01*
X99966000Y-56134000D02*
X101967600Y-54132400D01*
X66446400Y-71018400D02*
X66446400Y-78181200D01*
X66446400Y-71018400D02*
X66446400Y-57251600D01*
X81451200Y-51996000D02*
X81451200Y-56025800D01*
X88112600Y-88823800D02*
X88112600Y-123537400D01*
X69088000Y-138277600D02*
X88100000Y-138277600D01*
X66446400Y-127901700D02*
X66446400Y-135636000D01*
X66446400Y-57251600D02*
X67564000Y-56134000D01*
X66446400Y-78181200D02*
X66446400Y-82016600D01*
X91135200Y-85801200D02*
X88112600Y-88823800D01*
X113538000Y-85801200D02*
X91135200Y-85801200D01*
D31*
%TO.N,RES*%
X86868000Y-61595000D02*
X86868000Y-64897000D01*
X109080300Y-55232300D02*
X104787700Y-55232300D01*
X104787700Y-55232300D02*
X101092000Y-58928000D01*
X101092000Y-58928000D02*
X89535000Y-58928000D01*
X86868000Y-64897000D02*
X83743800Y-68021200D01*
X113969800Y-51612800D02*
X112699800Y-51612800D01*
X112699800Y-51612800D02*
X109080300Y-55232300D01*
X89535000Y-58928000D02*
X86868000Y-61595000D01*
X114046000Y-51689000D02*
X113969800Y-51612800D01*
X83743800Y-68021200D02*
X69265800Y-68021200D01*
%TO.N,MOSI*%
X98552000Y-78359000D02*
X99822000Y-79629000D01*
X98552000Y-72009000D02*
X98552000Y-78359000D01*
X90678000Y-70561200D02*
X97104200Y-70561200D01*
X69265800Y-70561200D02*
X82804000Y-70561200D01*
X90678000Y-70561200D02*
X90754200Y-70485000D01*
X97104200Y-70561200D02*
X98552000Y-72009000D01*
X99822000Y-79629000D02*
X114046000Y-79629000D01*
%TO.N,BLK*%
X90728800Y-62941200D02*
X95250000Y-62941200D01*
X90678000Y-62992000D02*
X90728800Y-62941200D01*
X83134200Y-62941200D02*
X83185000Y-62992000D01*
X97993200Y-62941200D02*
X99441000Y-64389000D01*
X69265800Y-62941200D02*
X83134200Y-62941200D01*
X99441000Y-64389000D02*
X114046000Y-64389000D01*
X95250000Y-66751200D02*
X95250000Y-62941200D01*
X95250000Y-62941200D02*
X97993200Y-62941200D01*
%TO.N,SCL*%
X92583000Y-88620600D02*
X114985800Y-88620600D01*
X92050000Y-121200000D02*
X91490800Y-120640800D01*
X94077400Y-121200200D02*
X94077200Y-121200000D01*
X94077200Y-121200000D02*
X92050000Y-121200000D01*
X118008400Y-85598000D02*
X118008400Y-70205600D01*
X91490800Y-89712800D02*
X92583000Y-88620600D01*
X114985800Y-88620600D02*
X118008400Y-85598000D01*
X117271800Y-69469000D02*
X114046000Y-69469000D01*
X118008400Y-70205600D02*
X117271800Y-69469000D01*
X91490800Y-120640800D02*
X91490800Y-89712800D01*
%TO.N,SDA*%
X91440200Y-123740200D02*
X94077400Y-123740200D01*
X116636800Y-84988400D02*
X114325400Y-87299800D01*
X90017600Y-122317600D02*
X91440200Y-123740200D01*
X116636800Y-77622400D02*
X116636800Y-84988400D01*
X114325400Y-87299800D02*
X91973400Y-87299800D01*
X90017600Y-89255600D02*
X90017600Y-122317600D01*
X116103400Y-77089000D02*
X116636800Y-77622400D01*
X114046000Y-77089000D02*
X116103400Y-77089000D01*
X91973400Y-87299800D02*
X90017600Y-89255600D01*
%TO.N,C1*%
X147320000Y-45669200D02*
X157734000Y-45669200D01*
X159308800Y-72034400D02*
X159308800Y-92710000D01*
X159308800Y-51562000D02*
X159308800Y-72034400D01*
X143154400Y-49834800D02*
X147320000Y-45669200D01*
X159308800Y-47244000D02*
X159308800Y-51562000D01*
X136906000Y-49834800D02*
X143154400Y-49834800D01*
X159308800Y-51562000D02*
X159308800Y-51470400D01*
X136093200Y-58572400D02*
X136093200Y-50647600D01*
X159308800Y-51470400D02*
X159297800Y-51459400D01*
X139446000Y-59309000D02*
X136829800Y-59309000D01*
X157734000Y-45669200D02*
X159308800Y-47244000D01*
X136829800Y-59309000D02*
X136093200Y-58572400D01*
X136093200Y-50647600D02*
X136906000Y-49834800D01*
%TO.N,R1*%
X152958800Y-52120800D02*
X152958800Y-54102000D01*
X152958800Y-59182000D02*
X156718000Y-59182000D01*
X139471400Y-51663600D02*
X152501600Y-51663600D01*
X193548000Y-59182000D02*
X197205600Y-59182000D01*
X152958800Y-54102000D02*
X152958800Y-59182000D01*
X213868000Y-58724800D02*
X213868000Y-54090000D01*
X173261867Y-59165067D02*
X173278800Y-59182000D01*
X193564933Y-54090000D02*
X193564933Y-59165067D01*
X139446000Y-51689000D02*
X139471400Y-51663600D01*
X182803800Y-59182000D02*
X193548000Y-59182000D01*
X193564933Y-59165067D02*
X193548000Y-59182000D01*
X202996800Y-59182000D02*
X213410800Y-59182000D01*
X152501600Y-51663600D02*
X152958800Y-52120800D01*
X173278800Y-59182000D02*
X177241200Y-59182000D01*
X213410800Y-59182000D02*
X213868000Y-58724800D01*
X162483800Y-59182000D02*
X173278800Y-59182000D01*
X173261867Y-54090000D02*
X173261867Y-59165067D01*
%TO.N,C2*%
X179611867Y-92710000D02*
X179654200Y-92667667D01*
X177647600Y-44348400D02*
X179603400Y-46304200D01*
X139446000Y-61849000D02*
X136321800Y-61849000D01*
X142646400Y-48463200D02*
X146761200Y-44348400D01*
X136296400Y-48463200D02*
X142646400Y-48463200D01*
X179603400Y-46304200D02*
X179603400Y-51541533D01*
X179603400Y-72025933D02*
X179603400Y-51558467D01*
X179603400Y-51541533D02*
X179611867Y-51550000D01*
X179611867Y-72034400D02*
X179603400Y-72025933D01*
X146761200Y-44348400D02*
X177647600Y-44348400D01*
X136321800Y-61849000D02*
X134620000Y-60147200D01*
X134620000Y-50139600D02*
X136296400Y-48463200D01*
X179603400Y-51558467D02*
X179611867Y-51550000D01*
X179654200Y-92667667D02*
X179654200Y-72076733D01*
X179654200Y-72076733D02*
X179611867Y-72034400D01*
X134620000Y-60147200D02*
X134620000Y-50139600D01*
%TO.N,C3*%
X133096000Y-49606200D02*
X135610600Y-47091600D01*
X199923400Y-44729400D02*
X199923400Y-51541533D01*
X135966200Y-64389000D02*
X133096000Y-61518800D01*
X199898000Y-72051333D02*
X199898000Y-92693067D01*
X199914933Y-51550000D02*
X199923400Y-51558467D01*
X133096000Y-61518800D02*
X133096000Y-49606200D01*
X198323200Y-43129200D02*
X199923400Y-44729400D01*
X142087600Y-47091600D02*
X146050000Y-43129200D01*
X135610600Y-47091600D02*
X142087600Y-47091600D01*
X199923400Y-51541533D02*
X199914933Y-51550000D01*
X199923400Y-51558467D02*
X199923400Y-72025933D01*
X199923400Y-72025933D02*
X199914933Y-72034400D01*
X139446000Y-64389000D02*
X135966200Y-64389000D01*
X146050000Y-43129200D02*
X198323200Y-43129200D01*
X199914933Y-72034400D02*
X199898000Y-72051333D01*
X199898000Y-92693067D02*
X199914933Y-92710000D01*
%TO.N,C4*%
X220141800Y-92633800D02*
X220218000Y-92710000D01*
X220218000Y-72034400D02*
X220141800Y-72110600D01*
X218541600Y-41808400D02*
X145389600Y-41808400D01*
X141427200Y-45770800D02*
X134874000Y-45770800D01*
X145389600Y-41808400D02*
X141427200Y-45770800D01*
X220141800Y-72110600D02*
X220141800Y-92633800D01*
X131622800Y-49022000D02*
X131622800Y-64363600D01*
X134874000Y-45770800D02*
X131622800Y-49022000D01*
X220218000Y-51550000D02*
X220192600Y-51575400D01*
X220192600Y-51575400D02*
X220192600Y-72009000D01*
X131622800Y-64363600D02*
X134188200Y-66929000D01*
X220192600Y-72009000D02*
X220218000Y-72034400D01*
X220218000Y-43484800D02*
X218541600Y-41808400D01*
X220218000Y-51550000D02*
X220218000Y-43484800D01*
X134188200Y-66929000D02*
X139446000Y-66929000D01*
%TO.N,R2*%
X213868000Y-79349600D02*
X213868000Y-74714800D01*
X152958800Y-74613200D02*
X152958800Y-79806800D01*
X149707600Y-79806800D02*
X152958800Y-79806800D01*
X202971400Y-79806800D02*
X213410800Y-79806800D01*
X173261867Y-74714800D02*
X173261867Y-79789867D01*
X152958800Y-79806800D02*
X156718000Y-79806800D01*
X139446000Y-54229000D02*
X139471400Y-54203600D01*
X139471400Y-54203600D02*
X148437600Y-54203600D01*
X182702200Y-79806800D02*
X197205600Y-79806800D01*
X148844000Y-54610000D02*
X148844000Y-78943200D01*
X213410800Y-79806800D02*
X213868000Y-79349600D01*
X148437600Y-54203600D02*
X148844000Y-54610000D01*
X182676800Y-79781400D02*
X182702200Y-79806800D01*
X152908000Y-74625200D02*
X152958800Y-74574400D01*
X162483800Y-79806800D02*
X176758600Y-79806800D01*
X148844000Y-78943200D02*
X149707600Y-79806800D01*
X193564933Y-74714800D02*
X193564933Y-79789867D01*
%TO.N,R3*%
X145592800Y-56743600D02*
X139471400Y-56743600D01*
X152958800Y-95250000D02*
X149148800Y-95250000D01*
X145999200Y-92100400D02*
X145999200Y-57150000D01*
X139471400Y-56743600D02*
X139446000Y-56769000D01*
X152958800Y-95250000D02*
X213868000Y-95250000D01*
X149148800Y-95250000D02*
X145999200Y-92100400D01*
X145999200Y-57150000D02*
X145592800Y-56743600D01*
%TO.N,WK_UP*%
X129768600Y-99060000D02*
X126919800Y-99060000D01*
X126746000Y-81127600D02*
X129768600Y-84150200D01*
X133032500Y-99060000D02*
X129768600Y-99060000D01*
X122326400Y-81127600D02*
X126746000Y-81127600D01*
X129768600Y-84150200D02*
X129768600Y-99060000D01*
X120980200Y-51917600D02*
X120980200Y-79781400D01*
X120980200Y-79781400D02*
X122326400Y-81127600D01*
X118211600Y-49149000D02*
X120980200Y-51917600D01*
X114046000Y-49149000D02*
X118211600Y-49149000D01*
X120548400Y-99060000D02*
X126919800Y-99060000D01*
D30*
%TO.N,Net-(J1-Pin_2)*%
X68951200Y-51996000D02*
X65885400Y-51996000D01*
X59756513Y-70890702D02*
X60129413Y-70517802D01*
X60096400Y-66212189D02*
X60129413Y-66245202D01*
X60096400Y-57785000D02*
X60096400Y-66212189D01*
X60129413Y-70517802D02*
X60129413Y-66245202D01*
X65885400Y-51996000D02*
X60096400Y-57785000D01*
X58608113Y-70890702D02*
X59756513Y-70890702D01*
%TO.N,Net-(J1-Pin_1)*%
X77451200Y-51996000D02*
X77451200Y-53460400D01*
X66370200Y-54457600D02*
X62611000Y-58216800D01*
X77451200Y-53460400D02*
X76454000Y-54457600D01*
X76454000Y-54457600D02*
X66370200Y-54457600D01*
X62611000Y-58216800D02*
X62611000Y-66226789D01*
X62611000Y-66226789D02*
X62629413Y-66245202D01*
%TO.N,+3V3*%
X81075000Y-120235000D02*
X81085000Y-120225000D01*
X121310400Y-86614000D02*
X124637800Y-86614000D01*
X85496400Y-118953600D02*
X85496400Y-75742800D01*
X139446000Y-82169000D02*
X139446000Y-86563200D01*
X120497600Y-91338400D02*
X94894400Y-91338400D01*
X139446000Y-86563200D02*
X139446000Y-91440000D01*
X85496400Y-75742800D02*
X85598000Y-75641200D01*
X91490800Y-74371200D02*
X95250000Y-74371200D01*
X84225000Y-120225000D02*
X85496400Y-118953600D01*
X94894400Y-91338400D02*
X94386400Y-90830400D01*
X135890000Y-86588600D02*
X135915400Y-86563200D01*
X90220800Y-75641200D02*
X91490800Y-74371200D01*
X85598000Y-75641200D02*
X88544400Y-75641200D01*
X120548400Y-91440000D02*
X120548400Y-87376000D01*
X88544400Y-75641200D02*
X90220800Y-75641200D01*
X124637800Y-86614000D02*
X124663200Y-86588600D01*
X120548400Y-87376000D02*
X121310400Y-86614000D01*
X81085000Y-120225000D02*
X84225000Y-120225000D01*
X69265800Y-75641200D02*
X88544400Y-75641200D01*
X135915400Y-86563200D02*
X139446000Y-86563200D01*
D31*
%TO.N,SW_1*%
X122580400Y-79146400D02*
X123012200Y-79578200D01*
X122580400Y-48209200D02*
X122580400Y-79146400D01*
X133032500Y-91440000D02*
X135559800Y-91440000D01*
X114046000Y-44069000D02*
X118440200Y-44069000D01*
X139395200Y-99110800D02*
X139395200Y-101701600D01*
X139446000Y-95326200D02*
X139446000Y-99060000D01*
X159207200Y-104241600D02*
X159207200Y-115366800D01*
X133045200Y-91427300D02*
X133032500Y-91440000D01*
X139446000Y-99060000D02*
X139395200Y-99110800D01*
X140716000Y-103022400D02*
X157988000Y-103022400D01*
X127584200Y-79578200D02*
X133045200Y-85039200D01*
X157988000Y-103022400D02*
X159207200Y-104241600D01*
X139395200Y-101701600D02*
X140716000Y-103022400D01*
X135559800Y-91440000D02*
X139446000Y-95326200D01*
X118440200Y-44069000D02*
X122580400Y-48209200D01*
X123012200Y-79578200D02*
X127584200Y-79578200D01*
X133045200Y-85039200D02*
X133045200Y-91427300D01*
%TO.N,SW_2*%
X138426000Y-115366800D02*
X138426000Y-103551800D01*
X125857000Y-82600800D02*
X126919800Y-83663600D01*
X138426000Y-103551800D02*
X136779000Y-101904800D01*
X114046000Y-56769000D02*
X117729000Y-56769000D01*
X113995200Y-101193600D02*
X113995200Y-99110800D01*
X136779000Y-101904800D02*
X114706400Y-101904800D01*
X121640600Y-82600800D02*
X125857000Y-82600800D01*
X114706400Y-101904800D02*
X113995200Y-101193600D01*
X126919800Y-91440000D02*
X126919800Y-95660400D01*
X126919800Y-95660400D02*
X126018100Y-96562100D01*
X126018100Y-96562100D02*
X114791300Y-96562100D01*
X114046000Y-97307400D02*
X114046000Y-99060000D01*
X117729000Y-56769000D02*
X119430800Y-58470800D01*
X126919800Y-83663600D02*
X126919800Y-91440000D01*
X114791300Y-96562100D02*
X114046000Y-97307400D01*
X119430800Y-58470800D02*
X119430800Y-80391000D01*
X119430800Y-80391000D02*
X121640600Y-82600800D01*
D30*
%TO.N,+5V*%
X111151000Y-36449000D02*
X105162500Y-42437500D01*
X105150000Y-42425000D02*
X102380600Y-42425000D01*
X101955600Y-38227000D02*
X101955600Y-42000000D01*
X139446000Y-36449000D02*
X111151000Y-36449000D01*
X101955600Y-44561800D02*
X101967600Y-44573800D01*
X101955600Y-42000000D02*
X101955600Y-44561800D01*
X105162500Y-42437500D02*
X105150000Y-42425000D01*
D31*
%TO.N,Net-(J7-Pin_2)*%
X107200000Y-47901200D02*
X107200000Y-51000000D01*
X106412600Y-47113800D02*
X107200000Y-47901200D01*
X101967600Y-47113800D02*
X106412600Y-47113800D01*
D30*
%TO.N,Net-(SW15-C)*%
X94488000Y-38227000D02*
X89951200Y-42763800D01*
X99415600Y-38227000D02*
X94488000Y-38227000D01*
X89951200Y-42763800D02*
X89951200Y-51996000D01*
D31*
%TO.N,Argb*%
X109795000Y-43380000D02*
X107200000Y-43380000D01*
X114046000Y-41529000D02*
X111646000Y-41529000D01*
X111646000Y-41529000D02*
X109795000Y-43380000D01*
D30*
%TO.N,unconnected-(J2-Pin_1-Pad1)*%
X227857207Y-119684800D02*
X228000007Y-119542000D01*
X228000000Y-119541993D02*
X228000007Y-119542000D01*
%TD*%
M02*
