%TF.GenerationSoftware,KiCad,Pcbnew,9.0.0*%
%TF.CreationDate,2025-04-18T19:39:32+02:00*%
%TF.ProjectId,MacroDecKnob,4d616372-6f44-4656-934b-6e6f622e6b69,rev?*%
%TF.SameCoordinates,Original*%
%TF.FileFunction,Legend,Bot*%
%TF.FilePolarity,Positive*%
%FSLAX46Y46*%
G04 Gerber Fmt 4.6, Leading zero omitted, Abs format (unit mm)*
G04 Created by KiCad (PCBNEW 9.0.0) date 2025-04-18 19:39:32*
%MOMM*%
%LPD*%
G01*
G04 APERTURE LIST*
%ADD10C,0.100000*%
G04 APERTURE END LIST*
D10*
X79086972Y-119742419D02*
X78753639Y-120742419D01*
X78753639Y-120742419D02*
X78420306Y-119742419D01*
X77515544Y-120647180D02*
X77563163Y-120694800D01*
X77563163Y-120694800D02*
X77706020Y-120742419D01*
X77706020Y-120742419D02*
X77801258Y-120742419D01*
X77801258Y-120742419D02*
X77944115Y-120694800D01*
X77944115Y-120694800D02*
X78039353Y-120599561D01*
X78039353Y-120599561D02*
X78086972Y-120504323D01*
X78086972Y-120504323D02*
X78134591Y-120313847D01*
X78134591Y-120313847D02*
X78134591Y-120170990D01*
X78134591Y-120170990D02*
X78086972Y-119980514D01*
X78086972Y-119980514D02*
X78039353Y-119885276D01*
X78039353Y-119885276D02*
X77944115Y-119790038D01*
X77944115Y-119790038D02*
X77801258Y-119742419D01*
X77801258Y-119742419D02*
X77706020Y-119742419D01*
X77706020Y-119742419D02*
X77563163Y-119790038D01*
X77563163Y-119790038D02*
X77515544Y-119837657D01*
X76515544Y-120647180D02*
X76563163Y-120694800D01*
X76563163Y-120694800D02*
X76706020Y-120742419D01*
X76706020Y-120742419D02*
X76801258Y-120742419D01*
X76801258Y-120742419D02*
X76944115Y-120694800D01*
X76944115Y-120694800D02*
X77039353Y-120599561D01*
X77039353Y-120599561D02*
X77086972Y-120504323D01*
X77086972Y-120504323D02*
X77134591Y-120313847D01*
X77134591Y-120313847D02*
X77134591Y-120170990D01*
X77134591Y-120170990D02*
X77086972Y-119980514D01*
X77086972Y-119980514D02*
X77039353Y-119885276D01*
X77039353Y-119885276D02*
X76944115Y-119790038D01*
X76944115Y-119790038D02*
X76801258Y-119742419D01*
X76801258Y-119742419D02*
X76706020Y-119742419D01*
X76706020Y-119742419D02*
X76563163Y-119790038D01*
X76563163Y-119790038D02*
X76515544Y-119837657D01*
X98466334Y-124403200D02*
X98323477Y-124450819D01*
X98323477Y-124450819D02*
X98085382Y-124450819D01*
X98085382Y-124450819D02*
X97990144Y-124403200D01*
X97990144Y-124403200D02*
X97942525Y-124355580D01*
X97942525Y-124355580D02*
X97894906Y-124260342D01*
X97894906Y-124260342D02*
X97894906Y-124165104D01*
X97894906Y-124165104D02*
X97942525Y-124069866D01*
X97942525Y-124069866D02*
X97990144Y-124022247D01*
X97990144Y-124022247D02*
X98085382Y-123974628D01*
X98085382Y-123974628D02*
X98275858Y-123927009D01*
X98275858Y-123927009D02*
X98371096Y-123879390D01*
X98371096Y-123879390D02*
X98418715Y-123831771D01*
X98418715Y-123831771D02*
X98466334Y-123736533D01*
X98466334Y-123736533D02*
X98466334Y-123641295D01*
X98466334Y-123641295D02*
X98418715Y-123546057D01*
X98418715Y-123546057D02*
X98371096Y-123498438D01*
X98371096Y-123498438D02*
X98275858Y-123450819D01*
X98275858Y-123450819D02*
X98037763Y-123450819D01*
X98037763Y-123450819D02*
X97894906Y-123498438D01*
X97466334Y-124450819D02*
X97466334Y-123450819D01*
X97466334Y-123450819D02*
X97228239Y-123450819D01*
X97228239Y-123450819D02*
X97085382Y-123498438D01*
X97085382Y-123498438D02*
X96990144Y-123593676D01*
X96990144Y-123593676D02*
X96942525Y-123688914D01*
X96942525Y-123688914D02*
X96894906Y-123879390D01*
X96894906Y-123879390D02*
X96894906Y-124022247D01*
X96894906Y-124022247D02*
X96942525Y-124212723D01*
X96942525Y-124212723D02*
X96990144Y-124307961D01*
X96990144Y-124307961D02*
X97085382Y-124403200D01*
X97085382Y-124403200D02*
X97228239Y-124450819D01*
X97228239Y-124450819D02*
X97466334Y-124450819D01*
X96513953Y-124165104D02*
X96037763Y-124165104D01*
X96609191Y-124450819D02*
X96275858Y-123450819D01*
X96275858Y-123450819D02*
X95942525Y-124450819D01*
X78880639Y-122282419D02*
X78690163Y-122282419D01*
X78690163Y-122282419D02*
X78594925Y-122330038D01*
X78594925Y-122330038D02*
X78499687Y-122425276D01*
X78499687Y-122425276D02*
X78452068Y-122615752D01*
X78452068Y-122615752D02*
X78452068Y-122949085D01*
X78452068Y-122949085D02*
X78499687Y-123139561D01*
X78499687Y-123139561D02*
X78594925Y-123234800D01*
X78594925Y-123234800D02*
X78690163Y-123282419D01*
X78690163Y-123282419D02*
X78880639Y-123282419D01*
X78880639Y-123282419D02*
X78975877Y-123234800D01*
X78975877Y-123234800D02*
X79071115Y-123139561D01*
X79071115Y-123139561D02*
X79118734Y-122949085D01*
X79118734Y-122949085D02*
X79118734Y-122615752D01*
X79118734Y-122615752D02*
X79071115Y-122425276D01*
X79071115Y-122425276D02*
X78975877Y-122330038D01*
X78975877Y-122330038D02*
X78880639Y-122282419D01*
X78023496Y-122282419D02*
X78023496Y-123091942D01*
X78023496Y-123091942D02*
X77975877Y-123187180D01*
X77975877Y-123187180D02*
X77928258Y-123234800D01*
X77928258Y-123234800D02*
X77833020Y-123282419D01*
X77833020Y-123282419D02*
X77642544Y-123282419D01*
X77642544Y-123282419D02*
X77547306Y-123234800D01*
X77547306Y-123234800D02*
X77499687Y-123187180D01*
X77499687Y-123187180D02*
X77452068Y-123091942D01*
X77452068Y-123091942D02*
X77452068Y-122282419D01*
X77118734Y-122282419D02*
X76547306Y-122282419D01*
X76833020Y-123282419D02*
X76833020Y-122282419D01*
X78547306Y-124997038D02*
X78642544Y-124949419D01*
X78642544Y-124949419D02*
X78785401Y-124949419D01*
X78785401Y-124949419D02*
X78928258Y-124997038D01*
X78928258Y-124997038D02*
X79023496Y-125092276D01*
X79023496Y-125092276D02*
X79071115Y-125187514D01*
X79071115Y-125187514D02*
X79118734Y-125377990D01*
X79118734Y-125377990D02*
X79118734Y-125520847D01*
X79118734Y-125520847D02*
X79071115Y-125711323D01*
X79071115Y-125711323D02*
X79023496Y-125806561D01*
X79023496Y-125806561D02*
X78928258Y-125901800D01*
X78928258Y-125901800D02*
X78785401Y-125949419D01*
X78785401Y-125949419D02*
X78690163Y-125949419D01*
X78690163Y-125949419D02*
X78547306Y-125901800D01*
X78547306Y-125901800D02*
X78499687Y-125854180D01*
X78499687Y-125854180D02*
X78499687Y-125520847D01*
X78499687Y-125520847D02*
X78690163Y-125520847D01*
X78071115Y-125949419D02*
X78071115Y-124949419D01*
X78071115Y-124949419D02*
X77499687Y-125949419D01*
X77499687Y-125949419D02*
X77499687Y-124949419D01*
X77023496Y-125949419D02*
X77023496Y-124949419D01*
X77023496Y-124949419D02*
X76785401Y-124949419D01*
X76785401Y-124949419D02*
X76642544Y-124997038D01*
X76642544Y-124997038D02*
X76547306Y-125092276D01*
X76547306Y-125092276D02*
X76499687Y-125187514D01*
X76499687Y-125187514D02*
X76452068Y-125377990D01*
X76452068Y-125377990D02*
X76452068Y-125520847D01*
X76452068Y-125520847D02*
X76499687Y-125711323D01*
X76499687Y-125711323D02*
X76547306Y-125806561D01*
X76547306Y-125806561D02*
X76642544Y-125901800D01*
X76642544Y-125901800D02*
X76785401Y-125949419D01*
X76785401Y-125949419D02*
X77023496Y-125949419D01*
X98418715Y-119243819D02*
X98418715Y-118243819D01*
X98418715Y-118243819D02*
X98180620Y-118243819D01*
X98180620Y-118243819D02*
X98037763Y-118291438D01*
X98037763Y-118291438D02*
X97942525Y-118386676D01*
X97942525Y-118386676D02*
X97894906Y-118481914D01*
X97894906Y-118481914D02*
X97847287Y-118672390D01*
X97847287Y-118672390D02*
X97847287Y-118815247D01*
X97847287Y-118815247D02*
X97894906Y-119005723D01*
X97894906Y-119005723D02*
X97942525Y-119100961D01*
X97942525Y-119100961D02*
X98037763Y-119196200D01*
X98037763Y-119196200D02*
X98180620Y-119243819D01*
X98180620Y-119243819D02*
X98418715Y-119243819D01*
X97418715Y-119243819D02*
X97418715Y-118243819D01*
X96371097Y-119243819D02*
X96704430Y-118767628D01*
X96942525Y-119243819D02*
X96942525Y-118243819D01*
X96942525Y-118243819D02*
X96561573Y-118243819D01*
X96561573Y-118243819D02*
X96466335Y-118291438D01*
X96466335Y-118291438D02*
X96418716Y-118339057D01*
X96418716Y-118339057D02*
X96371097Y-118434295D01*
X96371097Y-118434295D02*
X96371097Y-118577152D01*
X96371097Y-118577152D02*
X96418716Y-118672390D01*
X96418716Y-118672390D02*
X96466335Y-118720009D01*
X96466335Y-118720009D02*
X96561573Y-118767628D01*
X96561573Y-118767628D02*
X96942525Y-118767628D01*
X98047306Y-125987638D02*
X98142544Y-125940019D01*
X98142544Y-125940019D02*
X98285401Y-125940019D01*
X98285401Y-125940019D02*
X98428258Y-125987638D01*
X98428258Y-125987638D02*
X98523496Y-126082876D01*
X98523496Y-126082876D02*
X98571115Y-126178114D01*
X98571115Y-126178114D02*
X98618734Y-126368590D01*
X98618734Y-126368590D02*
X98618734Y-126511447D01*
X98618734Y-126511447D02*
X98571115Y-126701923D01*
X98571115Y-126701923D02*
X98523496Y-126797161D01*
X98523496Y-126797161D02*
X98428258Y-126892400D01*
X98428258Y-126892400D02*
X98285401Y-126940019D01*
X98285401Y-126940019D02*
X98190163Y-126940019D01*
X98190163Y-126940019D02*
X98047306Y-126892400D01*
X98047306Y-126892400D02*
X97999687Y-126844780D01*
X97999687Y-126844780D02*
X97999687Y-126511447D01*
X97999687Y-126511447D02*
X98190163Y-126511447D01*
X97571115Y-126940019D02*
X97571115Y-125940019D01*
X97571115Y-125940019D02*
X97190163Y-125940019D01*
X97190163Y-125940019D02*
X97094925Y-125987638D01*
X97094925Y-125987638D02*
X97047306Y-126035257D01*
X97047306Y-126035257D02*
X96999687Y-126130495D01*
X96999687Y-126130495D02*
X96999687Y-126273352D01*
X96999687Y-126273352D02*
X97047306Y-126368590D01*
X97047306Y-126368590D02*
X97094925Y-126416209D01*
X97094925Y-126416209D02*
X97190163Y-126463828D01*
X97190163Y-126463828D02*
X97571115Y-126463828D01*
X96380639Y-125940019D02*
X96190163Y-125940019D01*
X96190163Y-125940019D02*
X96094925Y-125987638D01*
X96094925Y-125987638D02*
X95999687Y-126082876D01*
X95999687Y-126082876D02*
X95952068Y-126273352D01*
X95952068Y-126273352D02*
X95952068Y-126606685D01*
X95952068Y-126606685D02*
X95999687Y-126797161D01*
X95999687Y-126797161D02*
X96094925Y-126892400D01*
X96094925Y-126892400D02*
X96190163Y-126940019D01*
X96190163Y-126940019D02*
X96380639Y-126940019D01*
X96380639Y-126940019D02*
X96475877Y-126892400D01*
X96475877Y-126892400D02*
X96571115Y-126797161D01*
X96571115Y-126797161D02*
X96618734Y-126606685D01*
X96618734Y-126606685D02*
X96618734Y-126273352D01*
X96618734Y-126273352D02*
X96571115Y-126082876D01*
X96571115Y-126082876D02*
X96475877Y-125987638D01*
X96475877Y-125987638D02*
X96380639Y-125940019D01*
X98466334Y-121863200D02*
X98323477Y-121910819D01*
X98323477Y-121910819D02*
X98085382Y-121910819D01*
X98085382Y-121910819D02*
X97990144Y-121863200D01*
X97990144Y-121863200D02*
X97942525Y-121815580D01*
X97942525Y-121815580D02*
X97894906Y-121720342D01*
X97894906Y-121720342D02*
X97894906Y-121625104D01*
X97894906Y-121625104D02*
X97942525Y-121529866D01*
X97942525Y-121529866D02*
X97990144Y-121482247D01*
X97990144Y-121482247D02*
X98085382Y-121434628D01*
X98085382Y-121434628D02*
X98275858Y-121387009D01*
X98275858Y-121387009D02*
X98371096Y-121339390D01*
X98371096Y-121339390D02*
X98418715Y-121291771D01*
X98418715Y-121291771D02*
X98466334Y-121196533D01*
X98466334Y-121196533D02*
X98466334Y-121101295D01*
X98466334Y-121101295D02*
X98418715Y-121006057D01*
X98418715Y-121006057D02*
X98371096Y-120958438D01*
X98371096Y-120958438D02*
X98275858Y-120910819D01*
X98275858Y-120910819D02*
X98037763Y-120910819D01*
X98037763Y-120910819D02*
X97894906Y-120958438D01*
X96894906Y-121815580D02*
X96942525Y-121863200D01*
X96942525Y-121863200D02*
X97085382Y-121910819D01*
X97085382Y-121910819D02*
X97180620Y-121910819D01*
X97180620Y-121910819D02*
X97323477Y-121863200D01*
X97323477Y-121863200D02*
X97418715Y-121767961D01*
X97418715Y-121767961D02*
X97466334Y-121672723D01*
X97466334Y-121672723D02*
X97513953Y-121482247D01*
X97513953Y-121482247D02*
X97513953Y-121339390D01*
X97513953Y-121339390D02*
X97466334Y-121148914D01*
X97466334Y-121148914D02*
X97418715Y-121053676D01*
X97418715Y-121053676D02*
X97323477Y-120958438D01*
X97323477Y-120958438D02*
X97180620Y-120910819D01*
X97180620Y-120910819D02*
X97085382Y-120910819D01*
X97085382Y-120910819D02*
X96942525Y-120958438D01*
X96942525Y-120958438D02*
X96894906Y-121006057D01*
X95990144Y-121910819D02*
X96466334Y-121910819D01*
X96466334Y-121910819D02*
X96466334Y-120910819D01*
M02*
