%TF.GenerationSoftware,KiCad,Pcbnew,9.0.0*%
%TF.CreationDate,2025-04-18T21:36:22+02:00*%
%TF.ProjectId,MacroDecKnob,4d616372-6f44-4656-934b-6e6f622e6b69,rev?*%
%TF.SameCoordinates,Original*%
%TF.FileFunction,Soldermask,Top*%
%TF.FilePolarity,Negative*%
%FSLAX46Y46*%
G04 Gerber Fmt 4.6, Leading zero omitted, Abs format (unit mm)*
G04 Created by KiCad (PCBNEW 9.0.0) date 2025-04-18 21:36:22*
%MOMM*%
%LPD*%
G01*
G04 APERTURE LIST*
G04 Aperture macros list*
%AMRoundRect*
0 Rectangle with rounded corners*
0 $1 Rounding radius*
0 $2 $3 $4 $5 $6 $7 $8 $9 X,Y pos of 4 corners*
0 Add a 4 corners polygon primitive as box body*
4,1,4,$2,$3,$4,$5,$6,$7,$8,$9,$2,$3,0*
0 Add four circle primitives for the rounded corners*
1,1,$1+$1,$2,$3*
1,1,$1+$1,$4,$5*
1,1,$1+$1,$6,$7*
1,1,$1+$1,$8,$9*
0 Add four rect primitives between the rounded corners*
20,1,$1+$1,$2,$3,$4,$5,0*
20,1,$1+$1,$4,$5,$6,$7,0*
20,1,$1+$1,$6,$7,$8,$9,0*
20,1,$1+$1,$8,$9,$2,$3,0*%
G04 Aperture macros list end*
%ADD10C,2.200000*%
%ADD11C,4.000000*%
%ADD12R,2.500000X1.800000*%
%ADD13O,2.500000X1.800000*%
%ADD14RoundRect,0.102000X1.400000X0.900000X-1.400000X0.900000X-1.400000X-0.900000X1.400000X-0.900000X0*%
%ADD15O,3.004000X2.004000*%
%ADD16C,3.200000*%
%ADD17RoundRect,0.264706X0.985294X-0.635294X0.985294X0.635294X-0.985294X0.635294X-0.985294X-0.635294X0*%
%ADD18O,2.800000X1.800000*%
%ADD19RoundRect,0.264706X0.635294X0.985294X-0.635294X0.985294X-0.635294X-0.985294X0.635294X-0.985294X0*%
%ADD20O,1.800000X2.500000*%
%ADD21C,4.500000*%
%ADD22R,2.200000X2.200000*%
%ADD23RoundRect,0.330000X0.770000X0.770000X-0.770000X0.770000X-0.770000X-0.770000X0.770000X-0.770000X0*%
%ADD24C,5.600000*%
%ADD25RoundRect,0.343750X-0.756250X-1.656250X0.756250X-1.656250X0.756250X1.656250X-0.756250X1.656250X0*%
G04 APERTURE END LIST*
D10*
%TO.C,R4*%
X120548400Y-91440000D03*
X120548400Y-99060000D03*
%TD*%
D11*
%TO.C,SW2*%
X175801867Y-49010000D03*
D10*
X173261867Y-54090000D03*
X179611867Y-51550000D03*
%TD*%
D12*
%TO.C,J7*%
X101967600Y-49653800D03*
D13*
X101967600Y-47113800D03*
X101967600Y-44573800D03*
%TD*%
D11*
%TO.C,SW8*%
X216408000Y-69494400D03*
D10*
X213868000Y-74574400D03*
X220218000Y-72034400D03*
%TD*%
D14*
%TO.C,U1*%
X139446000Y-82169000D03*
D15*
X139446000Y-79629000D03*
X139446000Y-77089000D03*
X139446000Y-74549000D03*
X139446000Y-72009000D03*
X139446000Y-69469000D03*
X139446000Y-66929000D03*
X139446000Y-64389000D03*
X139446000Y-61849000D03*
X139446000Y-59309000D03*
X139446000Y-56769000D03*
X139446000Y-54229000D03*
X139446000Y-51689000D03*
X139446000Y-44069000D03*
X139446000Y-41529000D03*
X139446000Y-38989000D03*
X139446000Y-36449000D03*
X114046000Y-82169000D03*
X114046000Y-79629000D03*
X114046000Y-77089000D03*
X114046000Y-74549000D03*
X114046000Y-72009000D03*
X114046000Y-69469000D03*
X114046000Y-66929000D03*
X114046000Y-64389000D03*
X114046000Y-61849000D03*
X114046000Y-59309000D03*
X114046000Y-56769000D03*
X114046000Y-54229000D03*
X114046000Y-51689000D03*
X114046000Y-49149000D03*
X114046000Y-46609000D03*
X114046000Y-44069000D03*
X114046000Y-41529000D03*
X114046000Y-38989000D03*
%TD*%
D16*
%TO.C,Display1*%
X70670800Y-82016200D03*
X104690800Y-82016200D03*
X70670800Y-59106200D03*
X104690800Y-59106200D03*
D17*
X69265800Y-78181200D03*
D18*
X69265800Y-75641200D03*
X69265800Y-73101200D03*
X69265800Y-70561200D03*
X69265800Y-68021200D03*
X69265800Y-65481200D03*
X69265800Y-62941200D03*
%TD*%
D11*
%TO.C,SW10*%
X175801867Y-90170000D03*
D10*
X173261867Y-95250000D03*
X179611867Y-92710000D03*
%TD*%
%TO.C,R3*%
X113995200Y-91490800D03*
X113995200Y-99110800D03*
%TD*%
D19*
%TO.C,J1*%
X62629413Y-66245202D03*
D20*
X60129413Y-66245202D03*
%TD*%
D21*
%TO.C,MD1*%
X79575000Y-114775000D03*
X79575000Y-130775000D03*
X95575000Y-114775000D03*
X95575000Y-130775000D03*
D15*
X81075000Y-120235000D03*
X81075000Y-122775000D03*
X81075000Y-125315000D03*
X94077400Y-126280200D03*
X94077400Y-123740200D03*
X94077400Y-121200200D03*
X94077400Y-118660200D03*
%TD*%
D11*
%TO.C,SW5*%
X155498800Y-69494400D03*
D10*
X152958800Y-74574400D03*
X159308800Y-72034400D03*
%TD*%
D11*
%TO.C,SW14*%
X134616000Y-112826800D03*
D10*
X132076000Y-117906800D03*
X138426000Y-115366800D03*
%TD*%
D11*
%TO.C,SW7*%
X196104933Y-69494400D03*
D10*
X193564933Y-74574400D03*
X199914933Y-72034400D03*
%TD*%
D22*
%TO.C,D2*%
X126919800Y-91440000D03*
D10*
X126919800Y-99060000D03*
%TD*%
D11*
%TO.C,SW12*%
X216408000Y-90170000D03*
D10*
X213868000Y-95250000D03*
X220218000Y-92710000D03*
%TD*%
D23*
%TO.C,U2*%
X89951200Y-51996000D03*
X81451200Y-51996000D03*
X77451200Y-51996000D03*
X68951200Y-51996000D03*
%TD*%
D11*
%TO.C,SW13*%
X155397200Y-112826800D03*
D10*
X152857200Y-117906800D03*
X159207200Y-115366800D03*
%TD*%
%TO.C,R5*%
X107200000Y-43380000D03*
X107200000Y-51000000D03*
%TD*%
D11*
%TO.C,SW1*%
X155498800Y-49022000D03*
D10*
X152958800Y-54102000D03*
X159308800Y-51562000D03*
%TD*%
%TO.C,C1*%
X58727013Y-82018602D03*
X63727013Y-82018602D03*
%TD*%
D11*
%TO.C,SW3*%
X196104933Y-49010000D03*
D10*
X193564933Y-54090000D03*
X199914933Y-51550000D03*
%TD*%
D11*
%TO.C,SW4*%
X216408000Y-49010000D03*
D10*
X213868000Y-54090000D03*
X220218000Y-51550000D03*
%TD*%
D24*
%TO.C,J4*%
X60688549Y-136336458D03*
%TD*%
D11*
%TO.C,SW9*%
X155498800Y-90170000D03*
D10*
X152958800Y-95250000D03*
X159308800Y-92710000D03*
%TD*%
D11*
%TO.C,SW11*%
X196104933Y-90170000D03*
D10*
X193564933Y-95250000D03*
X199914933Y-92710000D03*
%TD*%
D11*
%TO.C,SW6*%
X175801867Y-69494400D03*
D10*
X173261867Y-74574400D03*
X179611867Y-72034400D03*
%TD*%
%TO.C,R2*%
X139446000Y-91440000D03*
X139446000Y-99060000D03*
%TD*%
D25*
%TO.C,SW15*%
X101955600Y-38227000D03*
X99415600Y-38227000D03*
X104495600Y-38227000D03*
%TD*%
D22*
%TO.C,D1*%
X133032500Y-91440000D03*
D10*
X133032500Y-99060000D03*
%TD*%
D24*
%TO.C,J3*%
X114199000Y-136315010D03*
%TD*%
%TO.C,J5*%
X226797010Y-40160535D03*
%TD*%
%TO.C,J2*%
X226730007Y-119542000D03*
%TD*%
D10*
%TO.C,R7*%
X63942113Y-78510702D03*
X63942113Y-70890702D03*
%TD*%
%TO.C,R1*%
X95250000Y-74371200D03*
X95250000Y-66751200D03*
%TD*%
D24*
%TO.C,J6*%
X60705993Y-40131987D03*
%TD*%
D10*
%TO.C,R6*%
X58608113Y-70890702D03*
X58608113Y-78510702D03*
%TD*%
M02*
