M48
; DRILL file {KiCad 9.0.0} date 2025-06-20T14:45:13+0200
; FORMAT={-:-/ absolute / metric / decimal}
; #@! TF.CreationDate,2025-06-20T14:45:13+02:00
; #@! TF.GenerationSoftware,Kicad,Pcbnew,9.0.0
; #@! TF.FileFunction,Plated,1,2,PTH
FMAT,2
METRIC
; #@! TA.AperFunction,Plated,PTH,ViaDrill
T1C0.500
; #@! TA.AperFunction,Plated,PTH,ViaDrill
T2C0.800
; #@! TA.AperFunction,Plated,PTH,ComponentDrill
T3C0.800
; #@! TA.AperFunction,Plated,PTH,ComponentDrill
T4C0.900
; #@! TA.AperFunction,Plated,PTH,ComponentDrill
T5C1.000
; #@! TA.AperFunction,Plated,PTH,ComponentDrill
T6C1.040
; #@! TA.AperFunction,Plated,PTH,ComponentDrill
T7C1.500
; #@! TA.AperFunction,Plated,PTH,ComponentDrill
T8C2.100
; #@! TA.AperFunction,Plated,PTH,ComponentDrill
T9C3.200
; #@! TA.AperFunction,Plated,PTH,ComponentDrill
T10C3.500
%
G90
G05
T1
X156.82Y-59.182
X156.82Y-79.807
X162.484Y-59.182
X162.484Y-79.807
X176.759Y-79.807
X177.063Y-59.182
X182.677Y-79.807
X182.804Y-59.182
X197.206Y-59.182
X197.206Y-79.807
X202.971Y-79.807
X202.997Y-59.182
T2
X83.134Y-70.561
X83.185Y-62.941
X85.547Y-91.288
X90.678Y-62.941
X90.678Y-70.561
X94.082Y-91.288
X124.663Y-86.589
X135.89Y-86.589
T3
X58.608Y-70.891
X58.608Y-78.511
X58.727Y-82.019
X63.727Y-82.019
X63.942Y-70.891
X63.942Y-78.511
X95.25Y-66.751
X95.25Y-74.371
X107.2Y-43.38
X107.2Y-51.0
X113.995Y-91.491
X113.995Y-99.111
X120.548Y-91.44
X120.548Y-99.06
X126.92Y-91.44
X126.92Y-99.06
X133.032Y-91.44
X133.032Y-99.06
X139.446Y-91.44
X139.446Y-99.06
T4
X60.129Y-66.245
X62.629Y-66.245
X69.266Y-62.941
X69.266Y-65.481
X69.266Y-68.021
X69.266Y-70.561
X69.266Y-73.101
X69.266Y-75.641
X69.266Y-78.181
T5
X68.951Y-51.996
X77.451Y-51.996
X81.451Y-51.996
X89.951Y-51.996
X101.968Y-44.574
X101.968Y-47.114
X101.968Y-49.654
T6
X81.075Y-120.235
X81.075Y-122.775
X81.075Y-125.315
X94.077Y-118.66
X94.077Y-121.2
X94.077Y-123.74
X94.077Y-126.28
X114.046Y-38.989
X114.046Y-41.529
X114.046Y-44.069
X114.046Y-46.609
X114.046Y-49.149
X114.046Y-51.689
X114.046Y-54.229
X114.046Y-56.769
X114.046Y-59.309
X114.046Y-61.849
X114.046Y-64.389
X114.046Y-66.929
X114.046Y-69.469
X114.046Y-72.009
X114.046Y-74.549
X114.046Y-77.089
X114.046Y-79.629
X114.046Y-82.169
X139.446Y-36.449
X139.446Y-38.989
X139.446Y-41.529
X139.446Y-44.069
X139.446Y-51.689
X139.446Y-54.229
X139.446Y-56.769
X139.446Y-59.309
X139.446Y-61.849
X139.446Y-64.389
X139.446Y-66.929
X139.446Y-69.469
X139.446Y-72.009
X139.446Y-74.549
X139.446Y-77.089
X139.446Y-79.629
X139.446Y-82.169
T7
X132.076Y-117.907
X138.426Y-115.367
X152.857Y-117.907
X152.959Y-54.102
X152.959Y-74.574
X152.959Y-95.25
X159.207Y-115.367
X159.309Y-51.562
X159.309Y-72.034
X159.309Y-92.71
X173.262Y-54.09
X173.262Y-74.574
X173.262Y-95.25
X179.612Y-51.55
X179.612Y-72.034
X179.612Y-92.71
X193.565Y-54.09
X193.565Y-74.574
X193.565Y-95.25
X199.915Y-51.55
X199.915Y-72.034
X199.915Y-92.71
X213.868Y-54.09
X213.868Y-74.574
X213.868Y-95.25
X220.218Y-51.55
X220.218Y-72.034
X220.218Y-92.71
T8
X70.671Y-59.106
X70.671Y-82.016
X104.691Y-59.106
X104.691Y-82.016
T9
X60.689Y-136.336
X60.706Y-40.132
X114.199Y-136.315
X226.73Y-119.542
X226.797Y-40.161
T10
X79.575Y-114.775
X79.575Y-130.775
X95.575Y-114.775
X95.575Y-130.775
T5
G00X99.416Y-37.477
M15
G01X99.416Y-38.977
M16
G05
G00X101.956Y-37.477
M15
G01X101.956Y-38.977
M16
G05
G00X104.496Y-37.477
M15
G01X104.496Y-38.977
M16
G05
M30
